%TF.GenerationSoftware,KiCad,Pcbnew,10.0.2*%
%TF.CreationDate,2026-06-25T19:40:57+02:00*%
%TF.ProjectId,DC_MOTO_speed_control_PWM,44435f4d-4f54-44f5-9f73-706565645f63,rev?*%
%TF.SameCoordinates,Original*%
%TF.FileFunction,Soldermask,Bot*%
%TF.FilePolarity,Negative*%
%FSLAX46Y46*%
G04 Gerber Fmt 4.6, Leading zero omitted, Abs format (unit mm)*
G04 Created by KiCad (PCBNEW 10.0.2) date 2026-06-25 19:40:57*
%MOMM*%
%LPD*%
G01*
G04 APERTURE LIST*
G04 Aperture macros list*
%AMRoundRect*
0 Rectangle with rounded corners*
0 $1 Rounding radius*
0 $2 $3 $4 $5 $6 $7 $8 $9 X,Y pos of 4 corners*
0 Add a 4 corners polygon primitive as box body*
4,1,4,$2,$3,$4,$5,$6,$7,$8,$9,$2,$3,0*
0 Add four circle primitives for the rounded corners*
1,1,$1+$1,$2,$3*
1,1,$1+$1,$4,$5*
1,1,$1+$1,$6,$7*
1,1,$1+$1,$8,$9*
0 Add four rect primitives between the rounded corners*
20,1,$1+$1,$2,$3,$4,$5,0*
20,1,$1+$1,$4,$5,$6,$7,0*
20,1,$1+$1,$6,$7,$8,$9,0*
20,1,$1+$1,$8,$9,$2,$3,0*%
G04 Aperture macros list end*
%ADD10RoundRect,0.250000X0.550000X-0.550000X0.550000X0.550000X-0.550000X0.550000X-0.550000X-0.550000X0*%
%ADD11C,1.600000*%
%ADD12R,2.000000X1.905000*%
%ADD13O,2.000000X1.905000*%
%ADD14C,1.100000*%
%ADD15RoundRect,0.249999X0.850001X-0.850001X0.850001X0.850001X-0.850001X0.850001X-0.850001X-0.850001X0*%
%ADD16C,2.200000*%
%ADD17C,3.200000*%
%ADD18RoundRect,0.250000X-0.550000X-0.550000X0.550000X-0.550000X0.550000X0.550000X-0.550000X0.550000X0*%
%ADD19C,1.800000*%
%ADD20C,4.400000*%
%ADD21RoundRect,0.249999X-0.850001X0.850001X-0.850001X-0.850001X0.850001X-0.850001X0.850001X0.850001X0*%
%ADD22RoundRect,0.102000X-0.705000X-0.705000X0.705000X-0.705000X0.705000X0.705000X-0.705000X0.705000X0*%
%ADD23C,1.614000*%
%ADD24C,2.307000*%
%ADD25RoundRect,0.250000X-0.550000X0.550000X-0.550000X-0.550000X0.550000X-0.550000X0.550000X0.550000X0*%
G04 APERTURE END LIST*
D10*
%TO.C,D2*%
X121120000Y-96210000D03*
D11*
X121120000Y-88590000D03*
%TD*%
D12*
%TO.C,Q1*%
X138360000Y-88370000D03*
D13*
X138360000Y-85830000D03*
X138360000Y-83290000D03*
%TD*%
D11*
%TO.C,C2*%
X132910000Y-80500000D03*
X132910000Y-85500000D03*
%TD*%
%TO.C,C1*%
X125970000Y-90680000D03*
X125970000Y-95680000D03*
%TD*%
D14*
%TO.C,J2*%
X150440000Y-84950000D03*
X150440000Y-82410000D03*
D15*
X147900000Y-84950000D03*
D16*
X147900000Y-82410000D03*
%TD*%
D17*
%TO.C,H3*%
X107600000Y-110920000D03*
%TD*%
%TO.C,H1*%
X149170000Y-65650000D03*
%TD*%
D18*
%TO.C,U1*%
X122340000Y-73070000D03*
D11*
X122340000Y-75610000D03*
X122340000Y-78150000D03*
X122340000Y-80690000D03*
X129960000Y-80690000D03*
X129960000Y-78150000D03*
X129960000Y-75610000D03*
X129960000Y-73070000D03*
%TD*%
D19*
%TO.C,RV1*%
X123410000Y-98660000D03*
X125910000Y-98660000D03*
X128410000Y-98660000D03*
D20*
X130310000Y-105660000D03*
X121510000Y-105660000D03*
%TD*%
D21*
%TO.C,D1*%
X141980000Y-79480000D03*
D16*
X141980000Y-87100000D03*
%TD*%
D22*
%TO.C,SW1*%
X112800000Y-76200000D03*
D23*
X112800000Y-80200000D03*
X112800000Y-84200000D03*
D24*
X117000000Y-72700000D03*
X110800000Y-87700000D03*
%TD*%
D17*
%TO.C,H4*%
X149170000Y-110920000D03*
%TD*%
%TO.C,H2*%
X107600000Y-65650000D03*
%TD*%
D25*
%TO.C,D3*%
X131310000Y-88640000D03*
D11*
X131310000Y-96260000D03*
%TD*%
D14*
%TO.C,-*%
X105560000Y-92300000D03*
X105560000Y-94840000D03*
D21*
X108100000Y-92300000D03*
D16*
X108100000Y-94840000D03*
%TD*%
M02*
