%TF.GenerationSoftware,KiCad,Pcbnew,10.0.2*%
%TF.CreationDate,2026-06-25T19:40:57+02:00*%
%TF.ProjectId,DC_MOTO_speed_control_PWM,44435f4d-4f54-44f5-9f73-706565645f63,rev?*%
%TF.SameCoordinates,Original*%
%TF.FileFunction,Copper,L1,Top*%
%TF.FilePolarity,Positive*%
%FSLAX46Y46*%
G04 Gerber Fmt 4.6, Leading zero omitted, Abs format (unit mm)*
G04 Created by KiCad (PCBNEW 10.0.2) date 2026-06-25 19:40:57*
%MOMM*%
%LPD*%
G01*
G04 APERTURE LIST*
G04 Aperture macros list*
%AMRoundRect*
0 Rectangle with rounded corners*
0 $1 Rounding radius*
0 $2 $3 $4 $5 $6 $7 $8 $9 X,Y pos of 4 corners*
0 Add a 4 corners polygon primitive as box body*
4,1,4,$2,$3,$4,$5,$6,$7,$8,$9,$2,$3,0*
0 Add four circle primitives for the rounded corners*
1,1,$1+$1,$2,$3*
1,1,$1+$1,$4,$5*
1,1,$1+$1,$6,$7*
1,1,$1+$1,$8,$9*
0 Add four rect primitives between the rounded corners*
20,1,$1+$1,$2,$3,$4,$5,0*
20,1,$1+$1,$4,$5,$6,$7,0*
20,1,$1+$1,$6,$7,$8,$9,0*
20,1,$1+$1,$8,$9,$2,$3,0*%
G04 Aperture macros list end*
%TA.AperFunction,ComponentPad*%
%ADD10RoundRect,0.250000X0.550000X-0.550000X0.550000X0.550000X-0.550000X0.550000X-0.550000X-0.550000X0*%
%TD*%
%TA.AperFunction,ComponentPad*%
%ADD11C,1.600000*%
%TD*%
%TA.AperFunction,ComponentPad*%
%ADD12R,2.000000X1.905000*%
%TD*%
%TA.AperFunction,ComponentPad*%
%ADD13O,2.000000X1.905000*%
%TD*%
%TA.AperFunction,ComponentPad*%
%ADD14RoundRect,0.249999X0.850001X-0.850001X0.850001X0.850001X-0.850001X0.850001X-0.850001X-0.850001X0*%
%TD*%
%TA.AperFunction,ComponentPad*%
%ADD15C,2.200000*%
%TD*%
%TA.AperFunction,SMDPad,CuDef*%
%ADD16RoundRect,0.250000X-0.450000X0.262500X-0.450000X-0.262500X0.450000X-0.262500X0.450000X0.262500X0*%
%TD*%
%TA.AperFunction,ComponentPad*%
%ADD17RoundRect,0.250000X-0.550000X-0.550000X0.550000X-0.550000X0.550000X0.550000X-0.550000X0.550000X0*%
%TD*%
%TA.AperFunction,ComponentPad*%
%ADD18C,1.800000*%
%TD*%
%TA.AperFunction,ComponentPad*%
%ADD19C,4.400000*%
%TD*%
%TA.AperFunction,ComponentPad*%
%ADD20RoundRect,0.249999X-0.850001X0.850001X-0.850001X-0.850001X0.850001X-0.850001X0.850001X0.850001X0*%
%TD*%
%TA.AperFunction,ComponentPad*%
%ADD21R,1.410000X1.410000*%
%TD*%
%TA.AperFunction,ComponentPad*%
%ADD22C,1.410000*%
%TD*%
%TA.AperFunction,ComponentPad*%
%ADD23C,2.103000*%
%TD*%
%TA.AperFunction,SMDPad,CuDef*%
%ADD24RoundRect,0.250000X0.450000X-0.262500X0.450000X0.262500X-0.450000X0.262500X-0.450000X-0.262500X0*%
%TD*%
%TA.AperFunction,ComponentPad*%
%ADD25RoundRect,0.250000X-0.550000X0.550000X-0.550000X-0.550000X0.550000X-0.550000X0.550000X0.550000X0*%
%TD*%
%TA.AperFunction,ViaPad*%
%ADD26C,0.800000*%
%TD*%
%TA.AperFunction,ViaPad*%
%ADD27C,0.700000*%
%TD*%
%TA.AperFunction,Conductor*%
%ADD28C,0.200000*%
%TD*%
%TA.AperFunction,Conductor*%
%ADD29C,1.000000*%
%TD*%
G04 APERTURE END LIST*
D10*
%TO.P,D2,1,K_1*%
%TO.N,Net-(D2-K)*%
X121120000Y-96210000D03*
D11*
%TO.P,D2,2,A_2*%
%TO.N,/discharge*%
X121120000Y-88590000D03*
%TD*%
D12*
%TO.P,Q1,1,G_1*%
%TO.N,Net-(Q1-G)*%
X138360000Y-88370000D03*
D13*
%TO.P,Q1,2,D_2*%
%TO.N,Net-(D1-A)*%
X138360000Y-85830000D03*
%TO.P,Q1,3,S_3*%
%TO.N,GND*%
X138360000Y-83290000D03*
%TD*%
D11*
%TO.P,C2,1*%
%TO.N,/control*%
X132910000Y-80500000D03*
%TO.P,C2,2*%
%TO.N,GND*%
X132910000Y-85500000D03*
%TD*%
%TO.P,C1,1*%
%TO.N,/pot_wiper_node*%
X125970000Y-90680000D03*
%TO.P,C1,2*%
%TO.N,GND*%
X125970000Y-95680000D03*
%TD*%
D14*
%TO.P,J2,1,Pin_1_1*%
%TO.N,Net-(D1-A)*%
X147900000Y-84950000D03*
D15*
%TO.P,J2,2,Pin_2_2*%
%TO.N,VCC*%
X147900000Y-82410000D03*
%TD*%
D16*
%TO.P,R3,1*%
%TO.N,VCC*%
X125950000Y-86167500D03*
%TO.P,R3,2*%
%TO.N,/discharge*%
X125950000Y-87992500D03*
%TD*%
D17*
%TO.P,U1,1,GND_1*%
%TO.N,GND*%
X122340000Y-73070000D03*
D11*
%TO.P,U1,2,TRIG_2*%
%TO.N,/pot_wiper_node*%
X122340000Y-75610000D03*
%TO.P,U1,3,OUT_3*%
%TO.N,Net-(U1-OUT)*%
X122340000Y-78150000D03*
%TO.P,U1,4,~{RST}_4*%
%TO.N,VCC*%
X122340000Y-80690000D03*
%TO.P,U1,5,CONT_5*%
%TO.N,/control*%
X129960000Y-80690000D03*
%TO.P,U1,6,THRES_6*%
%TO.N,/pot_wiper_node*%
X129960000Y-78150000D03*
%TO.P,U1,7,DISCH_7*%
%TO.N,/discharge*%
X129960000Y-75610000D03*
%TO.P,U1,8,VCC_8*%
%TO.N,VCC*%
X129960000Y-73070000D03*
%TD*%
D18*
%TO.P,RV1,1,1_1*%
%TO.N,Net-(D2-K)*%
X123410000Y-98660000D03*
%TO.P,RV1,2,2_2*%
%TO.N,/pot_wiper_node*%
X125910000Y-98660000D03*
%TO.P,RV1,3,3_3*%
%TO.N,Net-(D3-A)*%
X128410000Y-98660000D03*
D19*
%TO.P,RV1,MP*%
%TO.N,N/C*%
X130310000Y-105660000D03*
X121510000Y-105660000D03*
%TD*%
D20*
%TO.P,D1,1,K_1*%
%TO.N,VCC*%
X141980000Y-79480000D03*
D15*
%TO.P,D1,2,A_2*%
%TO.N,Net-(D1-A)*%
X141980000Y-87100000D03*
%TD*%
D21*
%TO.P,SW1,1,A_1*%
%TO.N,VCC*%
X112800000Y-76200000D03*
D22*
%TO.P,SW1,2,B_2*%
%TO.N,INPUT_POWER*%
X112800000Y-80200000D03*
%TO.P,SW1,3,C_3*%
%TO.N,unconnected-(SW1-C-Pad3)*%
X112800000Y-84200000D03*
D23*
%TO.P,SW1,S1*%
%TO.N,N/C*%
X117000000Y-72700000D03*
%TO.P,SW1,S2*%
X110800000Y-87700000D03*
%TD*%
D24*
%TO.P,R2,1*%
%TO.N,GND*%
X136100000Y-93992500D03*
%TO.P,R2,2*%
%TO.N,Net-(U1-OUT)*%
X136100000Y-92167500D03*
%TD*%
%TO.P,R1,1*%
%TO.N,Net-(U1-OUT)*%
X138630000Y-93992500D03*
%TO.P,R1,2*%
%TO.N,Net-(Q1-G)*%
X138630000Y-92167500D03*
%TD*%
D25*
%TO.P,D3,1,K_1*%
%TO.N,/discharge*%
X131310000Y-88640000D03*
D11*
%TO.P,D3,2,A_2*%
%TO.N,Net-(D3-A)*%
X131310000Y-96260000D03*
%TD*%
D20*
%TO.P,-,1,Pin_1_1*%
%TO.N,INPUT_POWER*%
X108100000Y-92300000D03*
D15*
%TO.P,-,2,Pin_2_2*%
%TO.N,GND*%
X108100000Y-94840000D03*
%TD*%
D26*
%TO.N,/discharge*%
X128550000Y-86920000D03*
X130260000Y-84560000D03*
%TO.N,Net-(U1-OUT)*%
X134220000Y-91330000D03*
D27*
X124760000Y-83120000D03*
D26*
X130040000Y-86760000D03*
%TD*%
%TO.N,Net-(D2-K)*%
D28*
X121120000Y-96370000D02*
X123410000Y-98660000D01*
X121120000Y-96210000D02*
X121120000Y-96370000D01*
%TO.N,/discharge*%
X129960000Y-75610000D02*
X131060000Y-76710000D01*
X131060000Y-76710000D02*
X131060000Y-83760000D01*
X131310000Y-88640000D02*
X126597500Y-88640000D01*
X126597500Y-88640000D02*
X125950000Y-87992500D01*
X127477500Y-87992500D02*
X125950000Y-87992500D01*
X125352500Y-88590000D02*
X125950000Y-87992500D01*
X128550000Y-86920000D02*
X127477500Y-87992500D01*
X131060000Y-83760000D02*
X130260000Y-84560000D01*
X121120000Y-88590000D02*
X125352500Y-88590000D01*
%TO.N,Net-(Q1-G)*%
X138630000Y-88640000D02*
X138360000Y-88370000D01*
X138630000Y-92167500D02*
X138630000Y-88640000D01*
%TO.N,VCC*%
D29*
X122340000Y-80690000D02*
X129960000Y-73070000D01*
X136370000Y-79480000D02*
X141980000Y-79480000D01*
X122340000Y-82557500D02*
X125950000Y-86167500D01*
X115250000Y-76200000D02*
X119740000Y-80690000D01*
X119740000Y-80690000D02*
X122340000Y-80690000D01*
X144940000Y-79450000D02*
X144910000Y-79480000D01*
X144910000Y-79480000D02*
X141980000Y-79480000D01*
X112800000Y-76200000D02*
X115250000Y-76200000D01*
X129960000Y-73070000D02*
X136370000Y-79480000D01*
X147900000Y-82410000D02*
X144940000Y-79450000D01*
X122340000Y-80690000D02*
X122340000Y-82557500D01*
%TO.N,Net-(U1-OUT)*%
D28*
X136100000Y-92167500D02*
X135057500Y-92167500D01*
X130040000Y-85485256D02*
X127674744Y-83120000D01*
X138630000Y-93992500D02*
X137925000Y-93992500D01*
X130040000Y-86760000D02*
X130040000Y-85485256D01*
X127674744Y-83120000D02*
X124760000Y-83120000D01*
X135057500Y-92167500D02*
X134220000Y-91330000D01*
X137925000Y-93992500D02*
X136100000Y-92167500D01*
%TO.N,Net-(D3-A)*%
X128410000Y-98660000D02*
X130810000Y-96260000D01*
X130810000Y-96260000D02*
X131310000Y-96260000D01*
%TO.N,INPUT_POWER*%
D29*
X108100000Y-84900000D02*
X112800000Y-80200000D01*
X108100000Y-92300000D02*
X108100000Y-84900000D01*
%TO.N,Net-(D1-A)*%
X144010000Y-84950000D02*
X144010000Y-85070000D01*
X140710000Y-85830000D02*
X138360000Y-85830000D01*
X147900000Y-84950000D02*
X144010000Y-84950000D01*
X144010000Y-85070000D02*
X141980000Y-87100000D01*
X141980000Y-87100000D02*
X140710000Y-85830000D01*
%TD*%
%TA.AperFunction,Conductor*%
%TO.N,GND*%
G36*
X153032539Y-61620185D02*
G01*
X153078294Y-61672989D01*
X153089500Y-61724500D01*
X153089500Y-114375500D01*
X153069815Y-114442539D01*
X153017011Y-114488294D01*
X152965500Y-114499500D01*
X103484500Y-114499500D01*
X103417461Y-114479815D01*
X103371706Y-114427011D01*
X103360500Y-114375500D01*
X103360500Y-110798711D01*
X105749500Y-110798711D01*
X105749500Y-111041288D01*
X105781161Y-111281785D01*
X105843947Y-111516104D01*
X105936773Y-111740205D01*
X105936776Y-111740212D01*
X106058064Y-111950289D01*
X106058066Y-111950292D01*
X106058067Y-111950293D01*
X106205733Y-112142736D01*
X106205739Y-112142743D01*
X106377256Y-112314260D01*
X106377262Y-112314265D01*
X106569711Y-112461936D01*
X106779788Y-112583224D01*
X107003900Y-112676054D01*
X107238211Y-112738838D01*
X107418586Y-112762584D01*
X107478711Y-112770500D01*
X107478712Y-112770500D01*
X107721289Y-112770500D01*
X107769388Y-112764167D01*
X107961789Y-112738838D01*
X108196100Y-112676054D01*
X108420212Y-112583224D01*
X108630289Y-112461936D01*
X108822738Y-112314265D01*
X108994265Y-112142738D01*
X109141936Y-111950289D01*
X109263224Y-111740212D01*
X109356054Y-111516100D01*
X109418838Y-111281789D01*
X109450500Y-111041288D01*
X109450500Y-110798712D01*
X109450500Y-110798711D01*
X147319500Y-110798711D01*
X147319500Y-111041288D01*
X147351161Y-111281785D01*
X147413947Y-111516104D01*
X147506773Y-111740205D01*
X147506776Y-111740212D01*
X147628064Y-111950289D01*
X147628066Y-111950292D01*
X147628067Y-111950293D01*
X147775733Y-112142736D01*
X147775739Y-112142743D01*
X147947256Y-112314260D01*
X147947262Y-112314265D01*
X148139711Y-112461936D01*
X148349788Y-112583224D01*
X148573900Y-112676054D01*
X148808211Y-112738838D01*
X148988586Y-112762584D01*
X149048711Y-112770500D01*
X149048712Y-112770500D01*
X149291289Y-112770500D01*
X149339388Y-112764167D01*
X149531789Y-112738838D01*
X149766100Y-112676054D01*
X149990212Y-112583224D01*
X150200289Y-112461936D01*
X150392738Y-112314265D01*
X150564265Y-112142738D01*
X150711936Y-111950289D01*
X150833224Y-111740212D01*
X150926054Y-111516100D01*
X150988838Y-111281789D01*
X151020500Y-111041288D01*
X151020500Y-110798712D01*
X150988838Y-110558211D01*
X150926054Y-110323900D01*
X150833224Y-110099788D01*
X150711936Y-109889711D01*
X150564265Y-109697262D01*
X150564260Y-109697256D01*
X150392743Y-109525739D01*
X150392736Y-109525733D01*
X150200293Y-109378067D01*
X150200292Y-109378066D01*
X150200289Y-109378064D01*
X149990212Y-109256776D01*
X149990205Y-109256773D01*
X149766104Y-109163947D01*
X149531785Y-109101161D01*
X149291289Y-109069500D01*
X149291288Y-109069500D01*
X149048712Y-109069500D01*
X149048711Y-109069500D01*
X148808214Y-109101161D01*
X148573895Y-109163947D01*
X148349794Y-109256773D01*
X148349785Y-109256777D01*
X148139706Y-109378067D01*
X147947263Y-109525733D01*
X147947256Y-109525739D01*
X147775739Y-109697256D01*
X147775733Y-109697263D01*
X147628067Y-109889706D01*
X147506777Y-110099785D01*
X147506773Y-110099794D01*
X147413947Y-110323895D01*
X147351161Y-110558214D01*
X147319500Y-110798711D01*
X109450500Y-110798711D01*
X109418838Y-110558211D01*
X109356054Y-110323900D01*
X109263224Y-110099788D01*
X109141936Y-109889711D01*
X108994265Y-109697262D01*
X108994260Y-109697256D01*
X108822743Y-109525739D01*
X108822736Y-109525733D01*
X108630293Y-109378067D01*
X108630292Y-109378066D01*
X108630289Y-109378064D01*
X108420212Y-109256776D01*
X108420205Y-109256773D01*
X108196104Y-109163947D01*
X107961785Y-109101161D01*
X107721289Y-109069500D01*
X107721288Y-109069500D01*
X107478712Y-109069500D01*
X107478711Y-109069500D01*
X107238214Y-109101161D01*
X107003895Y-109163947D01*
X106779794Y-109256773D01*
X106779785Y-109256777D01*
X106569706Y-109378067D01*
X106377263Y-109525733D01*
X106377256Y-109525739D01*
X106205739Y-109697256D01*
X106205733Y-109697263D01*
X106058067Y-109889706D01*
X105936777Y-110099785D01*
X105936773Y-110099794D01*
X105843947Y-110323895D01*
X105781161Y-110558214D01*
X105749500Y-110798711D01*
X103360500Y-110798711D01*
X103360500Y-105508336D01*
X118809500Y-105508336D01*
X118809500Y-105811663D01*
X118843457Y-106113048D01*
X118843460Y-106113062D01*
X118910953Y-106408771D01*
X118910957Y-106408783D01*
X119011133Y-106695068D01*
X119142733Y-106968338D01*
X119142735Y-106968341D01*
X119304108Y-107225164D01*
X119493221Y-107462304D01*
X119707696Y-107676779D01*
X119944836Y-107865892D01*
X120201659Y-108027265D01*
X120474935Y-108158868D01*
X120689951Y-108234105D01*
X120761216Y-108259042D01*
X120761228Y-108259046D01*
X121056937Y-108326540D01*
X121056946Y-108326541D01*
X121056951Y-108326542D01*
X121257874Y-108349180D01*
X121358337Y-108360499D01*
X121358340Y-108360500D01*
X121358343Y-108360500D01*
X121661660Y-108360500D01*
X121661661Y-108360499D01*
X121815694Y-108343144D01*
X121963048Y-108326542D01*
X121963051Y-108326541D01*
X121963063Y-108326540D01*
X122258772Y-108259046D01*
X122545065Y-108158868D01*
X122818341Y-108027265D01*
X123075164Y-107865892D01*
X123312304Y-107676779D01*
X123526779Y-107462304D01*
X123715892Y-107225164D01*
X123877265Y-106968341D01*
X124008868Y-106695065D01*
X124109046Y-106408772D01*
X124176540Y-106113063D01*
X124210500Y-105811657D01*
X124210500Y-105508343D01*
X124210499Y-105508336D01*
X127609500Y-105508336D01*
X127609500Y-105811663D01*
X127643457Y-106113048D01*
X127643460Y-106113062D01*
X127710953Y-106408771D01*
X127710957Y-106408783D01*
X127811133Y-106695068D01*
X127942733Y-106968338D01*
X127942735Y-106968341D01*
X128104108Y-107225164D01*
X128293221Y-107462304D01*
X128507696Y-107676779D01*
X128744836Y-107865892D01*
X129001659Y-108027265D01*
X129274935Y-108158868D01*
X129489951Y-108234105D01*
X129561216Y-108259042D01*
X129561228Y-108259046D01*
X129856937Y-108326540D01*
X129856946Y-108326541D01*
X129856951Y-108326542D01*
X130057874Y-108349180D01*
X130158337Y-108360499D01*
X130158340Y-108360500D01*
X130158343Y-108360500D01*
X130461660Y-108360500D01*
X130461661Y-108360499D01*
X130615694Y-108343144D01*
X130763048Y-108326542D01*
X130763051Y-108326541D01*
X130763063Y-108326540D01*
X131058772Y-108259046D01*
X131345065Y-108158868D01*
X131618341Y-108027265D01*
X131875164Y-107865892D01*
X132112304Y-107676779D01*
X132326779Y-107462304D01*
X132515892Y-107225164D01*
X132677265Y-106968341D01*
X132808868Y-106695065D01*
X132909046Y-106408772D01*
X132976540Y-106113063D01*
X133010500Y-105811657D01*
X133010500Y-105508343D01*
X132976540Y-105206937D01*
X132909046Y-104911228D01*
X132808868Y-104624935D01*
X132677265Y-104351659D01*
X132515892Y-104094836D01*
X132326779Y-103857696D01*
X132112304Y-103643221D01*
X131875164Y-103454108D01*
X131618341Y-103292735D01*
X131618338Y-103292733D01*
X131345068Y-103161133D01*
X131058783Y-103060957D01*
X131058771Y-103060953D01*
X130830556Y-103008864D01*
X130763063Y-102993460D01*
X130763060Y-102993459D01*
X130763048Y-102993457D01*
X130461663Y-102959500D01*
X130461657Y-102959500D01*
X130158343Y-102959500D01*
X130158336Y-102959500D01*
X129856951Y-102993457D01*
X129856937Y-102993460D01*
X129561228Y-103060953D01*
X129561216Y-103060957D01*
X129274931Y-103161133D01*
X129001661Y-103292733D01*
X128744837Y-103454107D01*
X128507696Y-103643220D01*
X128293220Y-103857696D01*
X128104107Y-104094837D01*
X127942733Y-104351661D01*
X127811133Y-104624931D01*
X127710957Y-104911216D01*
X127710953Y-104911228D01*
X127643460Y-105206937D01*
X127643457Y-105206951D01*
X127609500Y-105508336D01*
X124210499Y-105508336D01*
X124176540Y-105206937D01*
X124109046Y-104911228D01*
X124008868Y-104624935D01*
X123877265Y-104351659D01*
X123715892Y-104094836D01*
X123526779Y-103857696D01*
X123312304Y-103643221D01*
X123075164Y-103454108D01*
X122818341Y-103292735D01*
X122818338Y-103292733D01*
X122545068Y-103161133D01*
X122258783Y-103060957D01*
X122258771Y-103060953D01*
X122030556Y-103008864D01*
X121963063Y-102993460D01*
X121963060Y-102993459D01*
X121963048Y-102993457D01*
X121661663Y-102959500D01*
X121661657Y-102959500D01*
X121358343Y-102959500D01*
X121358336Y-102959500D01*
X121056951Y-102993457D01*
X121056937Y-102993460D01*
X120761228Y-103060953D01*
X120761216Y-103060957D01*
X120474931Y-103161133D01*
X120201661Y-103292733D01*
X119944837Y-103454107D01*
X119707696Y-103643220D01*
X119493220Y-103857696D01*
X119304107Y-104094837D01*
X119142733Y-104351661D01*
X119011133Y-104624931D01*
X118910957Y-104911216D01*
X118910953Y-104911228D01*
X118843460Y-105206937D01*
X118843457Y-105206951D01*
X118809500Y-105508336D01*
X103360500Y-105508336D01*
X103360500Y-92221153D01*
X104759500Y-92221153D01*
X104759500Y-92378846D01*
X104790261Y-92533489D01*
X104790264Y-92533501D01*
X104850602Y-92679172D01*
X104850609Y-92679185D01*
X104938210Y-92810288D01*
X104938213Y-92810292D01*
X105049707Y-92921786D01*
X105049711Y-92921789D01*
X105180814Y-93009390D01*
X105180827Y-93009397D01*
X105288498Y-93053995D01*
X105326503Y-93069737D01*
X105481153Y-93100499D01*
X105481156Y-93100500D01*
X105481158Y-93100500D01*
X105638844Y-93100500D01*
X105638845Y-93100499D01*
X105793497Y-93069737D01*
X105939179Y-93009394D01*
X106070289Y-92921789D01*
X106181789Y-92810289D01*
X106248286Y-92710770D01*
X106272398Y-92674684D01*
X106326010Y-92629879D01*
X106395335Y-92621172D01*
X106458363Y-92651326D01*
X106495082Y-92710770D01*
X106499500Y-92743575D01*
X106499500Y-93200017D01*
X106510000Y-93302796D01*
X106565185Y-93469332D01*
X106565187Y-93469337D01*
X106657289Y-93618657D01*
X106786451Y-93747819D01*
X106784117Y-93750152D01*
X106816065Y-93795195D01*
X106819257Y-93864992D01*
X106799126Y-93908415D01*
X106731559Y-94001413D01*
X106617219Y-94225815D01*
X106539397Y-94465329D01*
X106534008Y-94499353D01*
X106504077Y-94562487D01*
X106444765Y-94599417D01*
X106374902Y-94598418D01*
X106316671Y-94559807D01*
X106296974Y-94527405D01*
X106269397Y-94460827D01*
X106269390Y-94460814D01*
X106181789Y-94329711D01*
X106181786Y-94329707D01*
X106070292Y-94218213D01*
X106070288Y-94218210D01*
X105939185Y-94130609D01*
X105939172Y-94130602D01*
X105793501Y-94070264D01*
X105793489Y-94070261D01*
X105638845Y-94039500D01*
X105638842Y-94039500D01*
X105481158Y-94039500D01*
X105481155Y-94039500D01*
X105326510Y-94070261D01*
X105326498Y-94070264D01*
X105180827Y-94130602D01*
X105180814Y-94130609D01*
X105049711Y-94218210D01*
X105049707Y-94218213D01*
X104938213Y-94329707D01*
X104938210Y-94329711D01*
X104850609Y-94460814D01*
X104850602Y-94460827D01*
X104790264Y-94606498D01*
X104790261Y-94606510D01*
X104759500Y-94761153D01*
X104759500Y-94918846D01*
X104790261Y-95073489D01*
X104790264Y-95073501D01*
X104850602Y-95219172D01*
X104850609Y-95219185D01*
X104938210Y-95350288D01*
X104938213Y-95350292D01*
X105049707Y-95461786D01*
X105049711Y-95461789D01*
X105180814Y-95549390D01*
X105180827Y-95549397D01*
X105326498Y-95609735D01*
X105326503Y-95609737D01*
X105414994Y-95627339D01*
X105481153Y-95640499D01*
X105481156Y-95640500D01*
X105481158Y-95640500D01*
X105638844Y-95640500D01*
X105638845Y-95640499D01*
X105793497Y-95609737D01*
X105939179Y-95549394D01*
X106070289Y-95461789D01*
X106181789Y-95350289D01*
X106269394Y-95219179D01*
X106296974Y-95152592D01*
X106340814Y-95098191D01*
X106407108Y-95076125D01*
X106474807Y-95093403D01*
X106522418Y-95144540D01*
X106534008Y-95180646D01*
X106539397Y-95214670D01*
X106617219Y-95454184D01*
X106731557Y-95678583D01*
X106805748Y-95780697D01*
X106805748Y-95780698D01*
X107576212Y-95010233D01*
X107587482Y-95052292D01*
X107659890Y-95177708D01*
X107762292Y-95280110D01*
X107887708Y-95352518D01*
X107929765Y-95363787D01*
X107159300Y-96134250D01*
X107261416Y-96208442D01*
X107485815Y-96322780D01*
X107725330Y-96400602D01*
X107974072Y-96440000D01*
X108225928Y-96440000D01*
X108474669Y-96400602D01*
X108714184Y-96322780D01*
X108938575Y-96208446D01*
X108938581Y-96208442D01*
X109040697Y-96134250D01*
X109040698Y-96134250D01*
X108270234Y-95363787D01*
X108312292Y-95352518D01*
X108437708Y-95280110D01*
X108540110Y-95177708D01*
X108612518Y-95052292D01*
X108623787Y-95010234D01*
X109394250Y-95780698D01*
X109394250Y-95780697D01*
X109468442Y-95678581D01*
X109468446Y-95678575D01*
X109503396Y-95609983D01*
X119819500Y-95609983D01*
X119819500Y-96810001D01*
X119819501Y-96810018D01*
X119830000Y-96912796D01*
X119830001Y-96912799D01*
X119885185Y-97079331D01*
X119885187Y-97079336D01*
X119920069Y-97135888D01*
X119977288Y-97228656D01*
X120101344Y-97352712D01*
X120250666Y-97444814D01*
X120417203Y-97499999D01*
X120519991Y-97510500D01*
X121359902Y-97510499D01*
X121426941Y-97530183D01*
X121447583Y-97546818D01*
X122036561Y-98135796D01*
X122070046Y-98197119D01*
X122066811Y-98261794D01*
X122043985Y-98332045D01*
X122009500Y-98549778D01*
X122009500Y-98770221D01*
X122043985Y-98987952D01*
X122112103Y-99197603D01*
X122112104Y-99197606D01*
X122212187Y-99394025D01*
X122341752Y-99572358D01*
X122341756Y-99572363D01*
X122497636Y-99728243D01*
X122497641Y-99728247D01*
X122653192Y-99841260D01*
X122675978Y-99857815D01*
X122804375Y-99923237D01*
X122872393Y-99957895D01*
X122872396Y-99957896D01*
X122977221Y-99991955D01*
X123082049Y-100026015D01*
X123299778Y-100060500D01*
X123299779Y-100060500D01*
X123520221Y-100060500D01*
X123520222Y-100060500D01*
X123737951Y-100026015D01*
X123947606Y-99957895D01*
X124144022Y-99857815D01*
X124322365Y-99728242D01*
X124478242Y-99572365D01*
X124559682Y-99460270D01*
X124615011Y-99417606D01*
X124684624Y-99411627D01*
X124746420Y-99444232D01*
X124760313Y-99460265D01*
X124841753Y-99572358D01*
X124841758Y-99572365D01*
X124997636Y-99728243D01*
X124997641Y-99728247D01*
X125153192Y-99841260D01*
X125175978Y-99857815D01*
X125304375Y-99923237D01*
X125372393Y-99957895D01*
X125372396Y-99957896D01*
X125477221Y-99991955D01*
X125582049Y-100026015D01*
X125799778Y-100060500D01*
X125799779Y-100060500D01*
X126020221Y-100060500D01*
X126020222Y-100060500D01*
X126237951Y-100026015D01*
X126447606Y-99957895D01*
X126644022Y-99857815D01*
X126822365Y-99728242D01*
X126978242Y-99572365D01*
X127059682Y-99460270D01*
X127115011Y-99417606D01*
X127184624Y-99411627D01*
X127246420Y-99444232D01*
X127260313Y-99460265D01*
X127341753Y-99572358D01*
X127341758Y-99572365D01*
X127497636Y-99728243D01*
X127497641Y-99728247D01*
X127653192Y-99841260D01*
X127675978Y-99857815D01*
X127804375Y-99923237D01*
X127872393Y-99957895D01*
X127872396Y-99957896D01*
X127977221Y-99991955D01*
X128082049Y-100026015D01*
X128299778Y-100060500D01*
X128299779Y-100060500D01*
X128520221Y-100060500D01*
X128520222Y-100060500D01*
X128737951Y-100026015D01*
X128947606Y-99957895D01*
X129144022Y-99857815D01*
X129322365Y-99728242D01*
X129478242Y-99572365D01*
X129607815Y-99394022D01*
X129707895Y-99197606D01*
X129776015Y-98987951D01*
X129810500Y-98770222D01*
X129810500Y-98549778D01*
X129776015Y-98332049D01*
X129753188Y-98261794D01*
X129751193Y-98191953D01*
X129783436Y-98135797D01*
X130510735Y-97408499D01*
X130572056Y-97375016D01*
X130641748Y-97380000D01*
X130654709Y-97385697D01*
X130810776Y-97465218D01*
X130810778Y-97465218D01*
X130810781Y-97465220D01*
X130915137Y-97499127D01*
X131005465Y-97528477D01*
X131106557Y-97544488D01*
X131207648Y-97560500D01*
X131207649Y-97560500D01*
X131412351Y-97560500D01*
X131412352Y-97560500D01*
X131614534Y-97528477D01*
X131809219Y-97465220D01*
X131991610Y-97372287D01*
X132084590Y-97304732D01*
X132157213Y-97251971D01*
X132157215Y-97251968D01*
X132157219Y-97251966D01*
X132301966Y-97107219D01*
X132301968Y-97107215D01*
X132301971Y-97107213D01*
X132394395Y-96980000D01*
X132422287Y-96941610D01*
X132515220Y-96759219D01*
X132578477Y-96564534D01*
X132610500Y-96362352D01*
X132610500Y-96157648D01*
X132585543Y-96000080D01*
X132578477Y-95955465D01*
X132515218Y-95760776D01*
X132473334Y-95678575D01*
X132422287Y-95578390D01*
X132401223Y-95549397D01*
X132301971Y-95412786D01*
X132157213Y-95268028D01*
X131991613Y-95147715D01*
X131991612Y-95147714D01*
X131991610Y-95147713D01*
X131894418Y-95098191D01*
X131809223Y-95054781D01*
X131614534Y-94991522D01*
X131439995Y-94963878D01*
X131412352Y-94959500D01*
X131207648Y-94959500D01*
X131183329Y-94963351D01*
X131005465Y-94991522D01*
X130810776Y-95054781D01*
X130628386Y-95147715D01*
X130462786Y-95268028D01*
X130318028Y-95412786D01*
X130197715Y-95578386D01*
X130104781Y-95760776D01*
X130041522Y-95955465D01*
X130009500Y-96157648D01*
X130009500Y-96159902D01*
X130009257Y-96160728D01*
X130009117Y-96162511D01*
X130008742Y-96162481D01*
X129989815Y-96226941D01*
X129973181Y-96247583D01*
X128934202Y-97286561D01*
X128872879Y-97320046D01*
X128808203Y-97316811D01*
X128783584Y-97308812D01*
X128737952Y-97293985D01*
X128629086Y-97276742D01*
X128520222Y-97259500D01*
X128299778Y-97259500D01*
X128227201Y-97270995D01*
X128082047Y-97293985D01*
X127872396Y-97362103D01*
X127872393Y-97362104D01*
X127675974Y-97462187D01*
X127497641Y-97591752D01*
X127497636Y-97591756D01*
X127341756Y-97747636D01*
X127341752Y-97747641D01*
X127260318Y-97859727D01*
X127204989Y-97902393D01*
X127135375Y-97908372D01*
X127073580Y-97875767D01*
X127059682Y-97859727D01*
X126978247Y-97747641D01*
X126978243Y-97747636D01*
X126822363Y-97591756D01*
X126822358Y-97591752D01*
X126644025Y-97462187D01*
X126644024Y-97462186D01*
X126644022Y-97462185D01*
X126581096Y-97430122D01*
X126447606Y-97362104D01*
X126447603Y-97362103D01*
X126237952Y-97293985D01*
X126129086Y-97276742D01*
X126020222Y-97259500D01*
X125799778Y-97259500D01*
X125727201Y-97270995D01*
X125582047Y-97293985D01*
X125372396Y-97362103D01*
X125372393Y-97362104D01*
X125175974Y-97462187D01*
X124997641Y-97591752D01*
X124997636Y-97591756D01*
X124841756Y-97747636D01*
X124841752Y-97747641D01*
X124760318Y-97859727D01*
X124704989Y-97902393D01*
X124635375Y-97908372D01*
X124573580Y-97875767D01*
X124559682Y-97859727D01*
X124478247Y-97747641D01*
X124478243Y-97747636D01*
X124322363Y-97591756D01*
X124322358Y-97591752D01*
X124144025Y-97462187D01*
X124144024Y-97462186D01*
X124144022Y-97462185D01*
X124081096Y-97430122D01*
X123947606Y-97362104D01*
X123947603Y-97362103D01*
X123737952Y-97293985D01*
X123629086Y-97276742D01*
X123520222Y-97259500D01*
X123299778Y-97259500D01*
X123256232Y-97266397D01*
X123082045Y-97293985D01*
X123011794Y-97316811D01*
X122941953Y-97318806D01*
X122885796Y-97286561D01*
X122456818Y-96857583D01*
X122442114Y-96830655D01*
X122425522Y-96804837D01*
X122424630Y-96798636D01*
X122423333Y-96796260D01*
X122420499Y-96769910D01*
X122420499Y-95609992D01*
X122417270Y-95578386D01*
X122417198Y-95577682D01*
X124670000Y-95577682D01*
X124670000Y-95782317D01*
X124702009Y-95984417D01*
X124765244Y-96179031D01*
X124858141Y-96361350D01*
X124858147Y-96361359D01*
X124890523Y-96405921D01*
X124890524Y-96405922D01*
X125570000Y-95726446D01*
X125570000Y-95732661D01*
X125597259Y-95834394D01*
X125649920Y-95925606D01*
X125724394Y-96000080D01*
X125815606Y-96052741D01*
X125917339Y-96080000D01*
X125923553Y-96080000D01*
X125244076Y-96759474D01*
X125288650Y-96791859D01*
X125470968Y-96884755D01*
X125665582Y-96947990D01*
X125867683Y-96980000D01*
X126072317Y-96980000D01*
X126274417Y-96947990D01*
X126469031Y-96884755D01*
X126651349Y-96791859D01*
X126695921Y-96759474D01*
X126016447Y-96080000D01*
X126022661Y-96080000D01*
X126124394Y-96052741D01*
X126215606Y-96000080D01*
X126290080Y-95925606D01*
X126342741Y-95834394D01*
X126370000Y-95732661D01*
X126370000Y-95726447D01*
X127049474Y-96405921D01*
X127081859Y-96361349D01*
X127174755Y-96179031D01*
X127237990Y-95984417D01*
X127270000Y-95782317D01*
X127270000Y-95577682D01*
X127237990Y-95375582D01*
X127174755Y-95180968D01*
X127081859Y-94998650D01*
X127049474Y-94954077D01*
X127049474Y-94954076D01*
X126370000Y-95633551D01*
X126370000Y-95627339D01*
X126342741Y-95525606D01*
X126290080Y-95434394D01*
X126215606Y-95359920D01*
X126124394Y-95307259D01*
X126022661Y-95280000D01*
X126016446Y-95280000D01*
X126695922Y-94600524D01*
X126695921Y-94600523D01*
X126651359Y-94568147D01*
X126651350Y-94568141D01*
X126469031Y-94475244D01*
X126274417Y-94412009D01*
X126072317Y-94380000D01*
X125867683Y-94380000D01*
X125665582Y-94412009D01*
X125470968Y-94475244D01*
X125288644Y-94568143D01*
X125244077Y-94600523D01*
X125244077Y-94600524D01*
X125923554Y-95280000D01*
X125917339Y-95280000D01*
X125815606Y-95307259D01*
X125724394Y-95359920D01*
X125649920Y-95434394D01*
X125597259Y-95525606D01*
X125570000Y-95627339D01*
X125570000Y-95633553D01*
X124890524Y-94954077D01*
X124890523Y-94954077D01*
X124858143Y-94998644D01*
X124765244Y-95180968D01*
X124702009Y-95375582D01*
X124670000Y-95577682D01*
X122417198Y-95577682D01*
X122414308Y-95549390D01*
X122409999Y-95507203D01*
X122354814Y-95340666D01*
X122262712Y-95191344D01*
X122138656Y-95067288D01*
X122038481Y-95005500D01*
X121989336Y-94975187D01*
X121989331Y-94975185D01*
X121961395Y-94965928D01*
X121822797Y-94920001D01*
X121822795Y-94920000D01*
X121720010Y-94909500D01*
X120519998Y-94909500D01*
X120519981Y-94909501D01*
X120417203Y-94920000D01*
X120417200Y-94920001D01*
X120250668Y-94975185D01*
X120250663Y-94975187D01*
X120101342Y-95067289D01*
X119977289Y-95191342D01*
X119885187Y-95340663D01*
X119885185Y-95340668D01*
X119878806Y-95359920D01*
X119830001Y-95507203D01*
X119830001Y-95507204D01*
X119830000Y-95507204D01*
X119819500Y-95609983D01*
X109503396Y-95609983D01*
X109533685Y-95550539D01*
X109582780Y-95454184D01*
X109660602Y-95214669D01*
X109700000Y-94965928D01*
X109700000Y-94714071D01*
X109692573Y-94667181D01*
X109660602Y-94465330D01*
X109608504Y-94304986D01*
X134900001Y-94304986D01*
X134910494Y-94407697D01*
X134965641Y-94574119D01*
X134965643Y-94574124D01*
X135057684Y-94723345D01*
X135181654Y-94847315D01*
X135330875Y-94939356D01*
X135330880Y-94939358D01*
X135497302Y-94994505D01*
X135497309Y-94994506D01*
X135600019Y-95004999D01*
X135849999Y-95004999D01*
X135850000Y-95004998D01*
X135850000Y-94242500D01*
X134900001Y-94242500D01*
X134900001Y-94304986D01*
X109608504Y-94304986D01*
X109583963Y-94229456D01*
X109583961Y-94229451D01*
X109582779Y-94225812D01*
X109468442Y-94001416D01*
X109400873Y-93908416D01*
X109377393Y-93842610D01*
X109393218Y-93774556D01*
X109415082Y-93749352D01*
X109413549Y-93747819D01*
X109418868Y-93742500D01*
X109542712Y-93618656D01*
X109634814Y-93469335D01*
X109689999Y-93302798D01*
X109700500Y-93200010D01*
X109700500Y-91399990D01*
X109689999Y-91297202D01*
X109634814Y-91130665D01*
X109542712Y-90981344D01*
X109418656Y-90857288D01*
X109325890Y-90800070D01*
X109269337Y-90765187D01*
X109269336Y-90765186D01*
X109269335Y-90765186D01*
X109185495Y-90737404D01*
X109128050Y-90697631D01*
X109101228Y-90633114D01*
X109100500Y-90619698D01*
X109100500Y-88274759D01*
X109120185Y-88207720D01*
X109172989Y-88161965D01*
X109242147Y-88152021D01*
X109305703Y-88181046D01*
X109342431Y-88236441D01*
X109361706Y-88295763D01*
X109374460Y-88320794D01*
X109472611Y-88513425D01*
X109616201Y-88711060D01*
X109788940Y-88883799D01*
X109986575Y-89027389D01*
X110071224Y-89070520D01*
X110204234Y-89138293D01*
X110204236Y-89138293D01*
X110204239Y-89138295D01*
X110323440Y-89177026D01*
X110436571Y-89213785D01*
X110677850Y-89252000D01*
X110677855Y-89252000D01*
X110922150Y-89252000D01*
X111163428Y-89213785D01*
X111235091Y-89190500D01*
X111395761Y-89138295D01*
X111613425Y-89027389D01*
X111811060Y-88883799D01*
X111983799Y-88711060D01*
X112127389Y-88513425D01*
X112238295Y-88295761D01*
X112313785Y-88063428D01*
X112329056Y-87967011D01*
X112352000Y-87822150D01*
X112352000Y-87577849D01*
X112313785Y-87336571D01*
X112259028Y-87168048D01*
X112238295Y-87104239D01*
X112238293Y-87104236D01*
X112238293Y-87104234D01*
X112154442Y-86939670D01*
X112127389Y-86886575D01*
X111983799Y-86688940D01*
X111811060Y-86516201D01*
X111613425Y-86372611D01*
X111561122Y-86345961D01*
X111395765Y-86261706D01*
X111163428Y-86186214D01*
X110922150Y-86148000D01*
X110922145Y-86148000D01*
X110677855Y-86148000D01*
X110677850Y-86148000D01*
X110436571Y-86186214D01*
X110204234Y-86261706D01*
X109986574Y-86372611D01*
X109788937Y-86516203D01*
X109616203Y-86688937D01*
X109472611Y-86886574D01*
X109361706Y-87104234D01*
X109342431Y-87163559D01*
X109302993Y-87221234D01*
X109238634Y-87248432D01*
X109169788Y-87236517D01*
X109118312Y-87189273D01*
X109100500Y-87125240D01*
X109100500Y-85365781D01*
X109120185Y-85298742D01*
X109136814Y-85278105D01*
X110309800Y-84105119D01*
X111594500Y-84105119D01*
X111594500Y-84294880D01*
X111624182Y-84482289D01*
X111682820Y-84662756D01*
X111739542Y-84774076D01*
X111764300Y-84822667D01*
X111768966Y-84831823D01*
X111880490Y-84985324D01*
X111880494Y-84985329D01*
X112014670Y-85119505D01*
X112014675Y-85119509D01*
X112120696Y-85196537D01*
X112168180Y-85231036D01*
X112275907Y-85285925D01*
X112337243Y-85317179D01*
X112337245Y-85317179D01*
X112337248Y-85317181D01*
X112374193Y-85329185D01*
X112517710Y-85375817D01*
X112705120Y-85405500D01*
X112705125Y-85405500D01*
X112894880Y-85405500D01*
X113082289Y-85375817D01*
X113083132Y-85375543D01*
X113262752Y-85317181D01*
X113431820Y-85231036D01*
X113585331Y-85119504D01*
X113719504Y-84985331D01*
X113831036Y-84831820D01*
X113917181Y-84662752D01*
X113975817Y-84482289D01*
X113984720Y-84426079D01*
X114005500Y-84294880D01*
X114005500Y-84105119D01*
X113975817Y-83917710D01*
X113947681Y-83831117D01*
X113917181Y-83737248D01*
X113917179Y-83737245D01*
X113917179Y-83737243D01*
X113863220Y-83631345D01*
X113831036Y-83568180D01*
X113799188Y-83524345D01*
X113719509Y-83414675D01*
X113719505Y-83414670D01*
X113585329Y-83280494D01*
X113585324Y-83280490D01*
X113431823Y-83168966D01*
X113431822Y-83168965D01*
X113431820Y-83168964D01*
X113379024Y-83142063D01*
X113262756Y-83082820D01*
X113082289Y-83024182D01*
X112894880Y-82994500D01*
X112894875Y-82994500D01*
X112705125Y-82994500D01*
X112705120Y-82994500D01*
X112517710Y-83024182D01*
X112337243Y-83082820D01*
X112168176Y-83168966D01*
X112014675Y-83280490D01*
X112014670Y-83280494D01*
X111880494Y-83414670D01*
X111880490Y-83414675D01*
X111768966Y-83568176D01*
X111682820Y-83737243D01*
X111624182Y-83917710D01*
X111594500Y-84105119D01*
X110309800Y-84105119D01*
X113002486Y-81412432D01*
X113063807Y-81378949D01*
X113070773Y-81377641D01*
X113082285Y-81375818D01*
X113082289Y-81375817D01*
X113086693Y-81374386D01*
X113262752Y-81317181D01*
X113431820Y-81231036D01*
X113585331Y-81119504D01*
X113719504Y-80985331D01*
X113831036Y-80831820D01*
X113917181Y-80662752D01*
X113975817Y-80482289D01*
X113991152Y-80385466D01*
X114005500Y-80294880D01*
X114005500Y-80105119D01*
X113975817Y-79917710D01*
X113917179Y-79737243D01*
X113874145Y-79652786D01*
X113831036Y-79568180D01*
X113803649Y-79530485D01*
X113719509Y-79414675D01*
X113719505Y-79414670D01*
X113585329Y-79280494D01*
X113585324Y-79280490D01*
X113431823Y-79168966D01*
X113431822Y-79168965D01*
X113431820Y-79168964D01*
X113378834Y-79141966D01*
X113262756Y-79082820D01*
X113082289Y-79024182D01*
X112894880Y-78994500D01*
X112894875Y-78994500D01*
X112705125Y-78994500D01*
X112705120Y-78994500D01*
X112517710Y-79024182D01*
X112337243Y-79082820D01*
X112168176Y-79168966D01*
X112014675Y-79280490D01*
X112014670Y-79280494D01*
X111880494Y-79414670D01*
X111880490Y-79414675D01*
X111768966Y-79568176D01*
X111682820Y-79737243D01*
X111624183Y-79917707D01*
X111622358Y-79929233D01*
X111592426Y-79992367D01*
X111587566Y-79997512D01*
X109519279Y-82065800D01*
X107462220Y-84122859D01*
X107462218Y-84122861D01*
X107412219Y-84172860D01*
X107322859Y-84262219D01*
X107213371Y-84426079D01*
X107213366Y-84426089D01*
X107160038Y-84554831D01*
X107160039Y-84554832D01*
X107142953Y-84596085D01*
X107142950Y-84596092D01*
X107137949Y-84608164D01*
X107137947Y-84608170D01*
X107099500Y-84801454D01*
X107099500Y-90619698D01*
X107079815Y-90686737D01*
X107027011Y-90732492D01*
X107014505Y-90737404D01*
X106930665Y-90765186D01*
X106930662Y-90765187D01*
X106781342Y-90857289D01*
X106657289Y-90981342D01*
X106565187Y-91130662D01*
X106565185Y-91130667D01*
X106554497Y-91162921D01*
X106510001Y-91297202D01*
X106510001Y-91297203D01*
X106510000Y-91297203D01*
X106499500Y-91399982D01*
X106499500Y-91856424D01*
X106479815Y-91923463D01*
X106427011Y-91969218D01*
X106357853Y-91979162D01*
X106294297Y-91950137D01*
X106272398Y-91925315D01*
X106181789Y-91789711D01*
X106181786Y-91789707D01*
X106070292Y-91678213D01*
X106070288Y-91678210D01*
X105939185Y-91590609D01*
X105939172Y-91590602D01*
X105793501Y-91530264D01*
X105793489Y-91530261D01*
X105638845Y-91499500D01*
X105638842Y-91499500D01*
X105481158Y-91499500D01*
X105481155Y-91499500D01*
X105326510Y-91530261D01*
X105326498Y-91530264D01*
X105180827Y-91590602D01*
X105180814Y-91590609D01*
X105049711Y-91678210D01*
X105049707Y-91678213D01*
X104938213Y-91789707D01*
X104938210Y-91789711D01*
X104850609Y-91920814D01*
X104850602Y-91920827D01*
X104790264Y-92066498D01*
X104790261Y-92066510D01*
X104759500Y-92221153D01*
X103360500Y-92221153D01*
X103360500Y-75447135D01*
X111594500Y-75447135D01*
X111594500Y-76952870D01*
X111594501Y-76952876D01*
X111600908Y-77012483D01*
X111651202Y-77147328D01*
X111651206Y-77147335D01*
X111737452Y-77262544D01*
X111737455Y-77262547D01*
X111852664Y-77348793D01*
X111852671Y-77348797D01*
X111987517Y-77399091D01*
X111987516Y-77399091D01*
X111994444Y-77399835D01*
X112047127Y-77405500D01*
X113552872Y-77405499D01*
X113612483Y-77399091D01*
X113747331Y-77348796D01*
X113862546Y-77262546D01*
X113871795Y-77250190D01*
X113927728Y-77208319D01*
X113971063Y-77200500D01*
X114784218Y-77200500D01*
X114851257Y-77220185D01*
X114871899Y-77236819D01*
X118959735Y-81324655D01*
X118959764Y-81324686D01*
X119102214Y-81467136D01*
X119102218Y-81467139D01*
X119266079Y-81576628D01*
X119266092Y-81576635D01*
X119394833Y-81629961D01*
X119448159Y-81652049D01*
X119448164Y-81652051D01*
X119542768Y-81670869D01*
X119567440Y-81675776D01*
X119641456Y-81690500D01*
X119641459Y-81690500D01*
X119641460Y-81690500D01*
X119838540Y-81690500D01*
X121215500Y-81690500D01*
X121282539Y-81710185D01*
X121328294Y-81762989D01*
X121339500Y-81814500D01*
X121339500Y-82656041D01*
X121339500Y-82656043D01*
X121339499Y-82656043D01*
X121377947Y-82849329D01*
X121377950Y-82849339D01*
X121453364Y-83031407D01*
X121453371Y-83031420D01*
X121562860Y-83195281D01*
X121562863Y-83195285D01*
X121706537Y-83338959D01*
X121706559Y-83338979D01*
X124713181Y-86345601D01*
X124746666Y-86406924D01*
X124749500Y-86433280D01*
X124749500Y-86479999D01*
X124749501Y-86480019D01*
X124760000Y-86582796D01*
X124760001Y-86582799D01*
X124762897Y-86591538D01*
X124815186Y-86749334D01*
X124899836Y-86886575D01*
X124907289Y-86898657D01*
X125000951Y-86992319D01*
X125034436Y-87053642D01*
X125029452Y-87123334D01*
X125000951Y-87167681D01*
X124907289Y-87261342D01*
X124815187Y-87410663D01*
X124815186Y-87410666D01*
X124760001Y-87577203D01*
X124760001Y-87577204D01*
X124760000Y-87577204D01*
X124749500Y-87679983D01*
X124749500Y-87865500D01*
X124729815Y-87932539D01*
X124677011Y-87978294D01*
X124625500Y-87989500D01*
X122349602Y-87989500D01*
X122282563Y-87969815D01*
X122239117Y-87921795D01*
X122232284Y-87908385D01*
X122111971Y-87742786D01*
X121967213Y-87598028D01*
X121801613Y-87477715D01*
X121801612Y-87477714D01*
X121801610Y-87477713D01*
X121738979Y-87445801D01*
X121619223Y-87384781D01*
X121424534Y-87321522D01*
X121249995Y-87293878D01*
X121222352Y-87289500D01*
X121017648Y-87289500D01*
X120993329Y-87293351D01*
X120815465Y-87321522D01*
X120620776Y-87384781D01*
X120438386Y-87477715D01*
X120272786Y-87598028D01*
X120128028Y-87742786D01*
X120007715Y-87908386D01*
X119914781Y-88090776D01*
X119851522Y-88285465D01*
X119819500Y-88487648D01*
X119819500Y-88692351D01*
X119851522Y-88894534D01*
X119914781Y-89089223D01*
X119945534Y-89149578D01*
X119991611Y-89240009D01*
X120007715Y-89271613D01*
X120128028Y-89437213D01*
X120272786Y-89581971D01*
X120407779Y-89680047D01*
X120438390Y-89702287D01*
X120554607Y-89761503D01*
X120620776Y-89795218D01*
X120620778Y-89795218D01*
X120620781Y-89795220D01*
X120706273Y-89822998D01*
X120815465Y-89858477D01*
X120916557Y-89874488D01*
X121017648Y-89890500D01*
X121017649Y-89890500D01*
X121222351Y-89890500D01*
X121222352Y-89890500D01*
X121424534Y-89858477D01*
X121619219Y-89795220D01*
X121801610Y-89702287D01*
X121894590Y-89634732D01*
X121967213Y-89581971D01*
X121967215Y-89581968D01*
X121967219Y-89581966D01*
X122111966Y-89437219D01*
X122111968Y-89437215D01*
X122111971Y-89437213D01*
X122232284Y-89271614D01*
X122232285Y-89271613D01*
X122232287Y-89271610D01*
X122239117Y-89258204D01*
X122287091Y-89207409D01*
X122349602Y-89190500D01*
X125265831Y-89190500D01*
X125265847Y-89190501D01*
X125273443Y-89190501D01*
X125431554Y-89190501D01*
X125431557Y-89190501D01*
X125584285Y-89149577D01*
X125634614Y-89120519D01*
X125721216Y-89070520D01*
X125757653Y-89034082D01*
X125766628Y-89027818D01*
X125789797Y-89020042D01*
X125811242Y-89008333D01*
X125831031Y-89006205D01*
X125832868Y-89005589D01*
X125834030Y-89005882D01*
X125837600Y-89005499D01*
X126062400Y-89005499D01*
X126129439Y-89025184D01*
X126150081Y-89041817D01*
X126228784Y-89120520D01*
X126228786Y-89120521D01*
X126228790Y-89120524D01*
X126279110Y-89149576D01*
X126279115Y-89149578D01*
X126326655Y-89177026D01*
X126374870Y-89227593D01*
X126388092Y-89296200D01*
X126362124Y-89361065D01*
X126305209Y-89401593D01*
X126245256Y-89406885D01*
X126102649Y-89384298D01*
X126072352Y-89379500D01*
X125867648Y-89379500D01*
X125843329Y-89383351D01*
X125665465Y-89411522D01*
X125470776Y-89474781D01*
X125288386Y-89567715D01*
X125122786Y-89688028D01*
X124978028Y-89832786D01*
X124857715Y-89998386D01*
X124764781Y-90180776D01*
X124701522Y-90375465D01*
X124669500Y-90577648D01*
X124669500Y-90782351D01*
X124701522Y-90984534D01*
X124764781Y-91179223D01*
X124857715Y-91361613D01*
X124978028Y-91527213D01*
X125122786Y-91671971D01*
X125277749Y-91784556D01*
X125288390Y-91792287D01*
X125404607Y-91851503D01*
X125470776Y-91885218D01*
X125470778Y-91885218D01*
X125470781Y-91885220D01*
X125528685Y-91904034D01*
X125665465Y-91948477D01*
X125766557Y-91964488D01*
X125867648Y-91980500D01*
X125867649Y-91980500D01*
X126072351Y-91980500D01*
X126072352Y-91980500D01*
X126274534Y-91948477D01*
X126469219Y-91885220D01*
X126651610Y-91792287D01*
X126768177Y-91707597D01*
X126817213Y-91671971D01*
X126817215Y-91671968D01*
X126817219Y-91671966D01*
X126961966Y-91527219D01*
X126961968Y-91527215D01*
X126961971Y-91527213D01*
X127027991Y-91436342D01*
X127082287Y-91361610D01*
X127175220Y-91179219D01*
X127238477Y-90984534D01*
X127270500Y-90782352D01*
X127270500Y-90577648D01*
X127263267Y-90531983D01*
X127238477Y-90375465D01*
X127175218Y-90180776D01*
X127141503Y-90114607D01*
X127082287Y-89998390D01*
X127040227Y-89940499D01*
X126961971Y-89832786D01*
X126817213Y-89688028D01*
X126651613Y-89567715D01*
X126651612Y-89567714D01*
X126651610Y-89567713D01*
X126537029Y-89509331D01*
X126469622Y-89474985D01*
X126418826Y-89427010D01*
X126402031Y-89359189D01*
X126424569Y-89293054D01*
X126479284Y-89249603D01*
X126525917Y-89240500D01*
X129897837Y-89240500D01*
X129964876Y-89260185D01*
X130010631Y-89312989D01*
X130019089Y-89338541D01*
X130019999Y-89342792D01*
X130051287Y-89437213D01*
X130075186Y-89509334D01*
X130167288Y-89658656D01*
X130291344Y-89782712D01*
X130440666Y-89874814D01*
X130607203Y-89929999D01*
X130709991Y-89940500D01*
X131910008Y-89940499D01*
X132012797Y-89929999D01*
X132179334Y-89874814D01*
X132328656Y-89782712D01*
X132452712Y-89658656D01*
X132544814Y-89509334D01*
X132599999Y-89342797D01*
X132610500Y-89240009D01*
X132610499Y-88039992D01*
X132607024Y-88005978D01*
X132599999Y-87937203D01*
X132599998Y-87937200D01*
X132544814Y-87770666D01*
X132452712Y-87621344D01*
X132328656Y-87497288D01*
X132235888Y-87440069D01*
X132179336Y-87405187D01*
X132179331Y-87405185D01*
X132139541Y-87392000D01*
X132012797Y-87350001D01*
X132012795Y-87350000D01*
X131910016Y-87339500D01*
X131910009Y-87339500D01*
X130960237Y-87339500D01*
X130893198Y-87319815D01*
X130847443Y-87267011D01*
X130837499Y-87197853D01*
X130845676Y-87168048D01*
X130882146Y-87080000D01*
X130905894Y-87022666D01*
X130910834Y-86997834D01*
X130932964Y-86886575D01*
X130940500Y-86848691D01*
X130940500Y-86671309D01*
X130940500Y-86671306D01*
X130940499Y-86671304D01*
X130917645Y-86556406D01*
X130905895Y-86497340D01*
X130905894Y-86497334D01*
X130879362Y-86433280D01*
X130838016Y-86333459D01*
X130838009Y-86333446D01*
X130739464Y-86185965D01*
X130739461Y-86185961D01*
X130676819Y-86123319D01*
X130643334Y-86061996D01*
X130640500Y-86035638D01*
X130640500Y-85455060D01*
X130642736Y-85447442D01*
X130641467Y-85439607D01*
X130652440Y-85414397D01*
X130657348Y-85397682D01*
X131610000Y-85397682D01*
X131610000Y-85602317D01*
X131642009Y-85804417D01*
X131705244Y-85999031D01*
X131798141Y-86181350D01*
X131798147Y-86181359D01*
X131830523Y-86225921D01*
X131830524Y-86225922D01*
X132510000Y-85546446D01*
X132510000Y-85552661D01*
X132537259Y-85654394D01*
X132589920Y-85745606D01*
X132664394Y-85820080D01*
X132755606Y-85872741D01*
X132857339Y-85900000D01*
X132863553Y-85900000D01*
X132184076Y-86579474D01*
X132228650Y-86611859D01*
X132410968Y-86704755D01*
X132605582Y-86767990D01*
X132807683Y-86800000D01*
X133012317Y-86800000D01*
X133214417Y-86767990D01*
X133409031Y-86704755D01*
X133591349Y-86611859D01*
X133635921Y-86579474D01*
X132956447Y-85900000D01*
X132962661Y-85900000D01*
X133064394Y-85872741D01*
X133155606Y-85820080D01*
X133230080Y-85745606D01*
X133282741Y-85654394D01*
X133310000Y-85552661D01*
X133310000Y-85546447D01*
X133989474Y-86225921D01*
X134021859Y-86181349D01*
X134114755Y-85999031D01*
X134177990Y-85804417D01*
X134210000Y-85602317D01*
X134210000Y-85397682D01*
X134177990Y-85195582D01*
X134114755Y-85000968D01*
X134021859Y-84818650D01*
X133989474Y-84774077D01*
X133989474Y-84774076D01*
X133310000Y-85453551D01*
X133310000Y-85447339D01*
X133282741Y-85345606D01*
X133230080Y-85254394D01*
X133155606Y-85179920D01*
X133064394Y-85127259D01*
X132962661Y-85100000D01*
X132956446Y-85100000D01*
X133635922Y-84420524D01*
X133635921Y-84420523D01*
X133591359Y-84388147D01*
X133591350Y-84388141D01*
X133409031Y-84295244D01*
X133214417Y-84232009D01*
X133012317Y-84200000D01*
X132807683Y-84200000D01*
X132605582Y-84232009D01*
X132410968Y-84295244D01*
X132228644Y-84388143D01*
X132184077Y-84420523D01*
X132184077Y-84420524D01*
X132863554Y-85100000D01*
X132857339Y-85100000D01*
X132755606Y-85127259D01*
X132664394Y-85179920D01*
X132589920Y-85254394D01*
X132537259Y-85345606D01*
X132510000Y-85447339D01*
X132510000Y-85453553D01*
X131830524Y-84774077D01*
X131830523Y-84774077D01*
X131798143Y-84818644D01*
X131705244Y-85000968D01*
X131642009Y-85195582D01*
X131610000Y-85397682D01*
X130657348Y-85397682D01*
X130660185Y-85388021D01*
X130666893Y-85381191D01*
X130669352Y-85375543D01*
X130695609Y-85351958D01*
X130788763Y-85289714D01*
X130834035Y-85259464D01*
X130959461Y-85134038D01*
X130959464Y-85134035D01*
X131058013Y-84986547D01*
X131125894Y-84822666D01*
X131126678Y-84818728D01*
X131160499Y-84648695D01*
X131160500Y-84648693D01*
X131160500Y-84560096D01*
X131169144Y-84530655D01*
X131175668Y-84500669D01*
X131179422Y-84495653D01*
X131180185Y-84493057D01*
X131196815Y-84472419D01*
X131418509Y-84250724D01*
X131418514Y-84250721D01*
X131428714Y-84240520D01*
X131428716Y-84240520D01*
X131540520Y-84128716D01*
X131607116Y-84013368D01*
X131619577Y-83991785D01*
X131660501Y-83839057D01*
X131660501Y-83680943D01*
X131660501Y-83673348D01*
X131660500Y-83673330D01*
X131660500Y-81374386D01*
X131680185Y-81307347D01*
X131732989Y-81261592D01*
X131802147Y-81251648D01*
X131865703Y-81280673D01*
X131884819Y-81301502D01*
X131918030Y-81347215D01*
X132062786Y-81491971D01*
X132217749Y-81604556D01*
X132228390Y-81612287D01*
X132343363Y-81670869D01*
X132410776Y-81705218D01*
X132410778Y-81705218D01*
X132410781Y-81705220D01*
X132515137Y-81739127D01*
X132605465Y-81768477D01*
X132706557Y-81784488D01*
X132807648Y-81800500D01*
X132807649Y-81800500D01*
X133012351Y-81800500D01*
X133012352Y-81800500D01*
X133214534Y-81768477D01*
X133409219Y-81705220D01*
X133591610Y-81612287D01*
X133711102Y-81525472D01*
X133757213Y-81491971D01*
X133757215Y-81491968D01*
X133757219Y-81491966D01*
X133901966Y-81347219D01*
X133901968Y-81347215D01*
X133901971Y-81347213D01*
X133986379Y-81231033D01*
X134022287Y-81181610D01*
X134115220Y-80999219D01*
X134178477Y-80804534D01*
X134210500Y-80602352D01*
X134210500Y-80397648D01*
X134178477Y-80195466D01*
X134115220Y-80000781D01*
X134115218Y-80000778D01*
X134115218Y-80000776D01*
X134072893Y-79917710D01*
X134022287Y-79818390D01*
X134014556Y-79807749D01*
X133901971Y-79652786D01*
X133757213Y-79508028D01*
X133591613Y-79387715D01*
X133591612Y-79387714D01*
X133591610Y-79387713D01*
X133527556Y-79355076D01*
X133409223Y-79294781D01*
X133214534Y-79231522D01*
X133039995Y-79203878D01*
X133012352Y-79199500D01*
X132807648Y-79199500D01*
X132783329Y-79203351D01*
X132605465Y-79231522D01*
X132410776Y-79294781D01*
X132228386Y-79387715D01*
X132062786Y-79508028D01*
X131918028Y-79652786D01*
X131884818Y-79698498D01*
X131829489Y-79741164D01*
X131759875Y-79747143D01*
X131698080Y-79714538D01*
X131663723Y-79653699D01*
X131660500Y-79625613D01*
X131660500Y-76799059D01*
X131660501Y-76799046D01*
X131660501Y-76630945D01*
X131660501Y-76630943D01*
X131619577Y-76478215D01*
X131619576Y-76478214D01*
X131617473Y-76470364D01*
X131620564Y-76469535D01*
X131614688Y-76415025D01*
X131645944Y-76352537D01*
X131706023Y-76316867D01*
X131775849Y-76319340D01*
X131824405Y-76349325D01*
X135589735Y-80114655D01*
X135589764Y-80114686D01*
X135732217Y-80257139D01*
X135788701Y-80294880D01*
X135896086Y-80366632D01*
X136003947Y-80411309D01*
X136078164Y-80442051D01*
X136174812Y-80461275D01*
X136245892Y-80475414D01*
X136271458Y-80480500D01*
X136271459Y-80480500D01*
X136271460Y-80480500D01*
X136468540Y-80480500D01*
X140299699Y-80480500D01*
X140366738Y-80500185D01*
X140412493Y-80552989D01*
X140417401Y-80565487D01*
X140444887Y-80648435D01*
X140445185Y-80649332D01*
X140445187Y-80649337D01*
X140453464Y-80662756D01*
X140537288Y-80798656D01*
X140661344Y-80922712D01*
X140810665Y-81014814D01*
X140977202Y-81069999D01*
X141079990Y-81080500D01*
X141079995Y-81080500D01*
X142880005Y-81080500D01*
X142880010Y-81080500D01*
X142982798Y-81069999D01*
X143149335Y-81014814D01*
X143298656Y-80922712D01*
X143422712Y-80798656D01*
X143514814Y-80649335D01*
X143542596Y-80565494D01*
X143582368Y-80508051D01*
X143646883Y-80481228D01*
X143660301Y-80480500D01*
X144504218Y-80480500D01*
X144571257Y-80500185D01*
X144591899Y-80516819D01*
X146263427Y-82188347D01*
X146296912Y-82249670D01*
X146298921Y-82279166D01*
X146299500Y-82279166D01*
X146299500Y-82284038D01*
X146299500Y-82535962D01*
X146305824Y-82575887D01*
X146338910Y-82784785D01*
X146416760Y-83024383D01*
X146465173Y-83119397D01*
X146515205Y-83217591D01*
X146531132Y-83248848D01*
X146598764Y-83341937D01*
X146622244Y-83407743D01*
X146606418Y-83475797D01*
X146586128Y-83502503D01*
X146457287Y-83631345D01*
X146365187Y-83780662D01*
X146365186Y-83780665D01*
X146337403Y-83864505D01*
X146297632Y-83921949D01*
X146233117Y-83948772D01*
X146219699Y-83949500D01*
X143911457Y-83949500D01*
X143718170Y-83987947D01*
X143718160Y-83987950D01*
X143536092Y-84063364D01*
X143536079Y-84063371D01*
X143372218Y-84172860D01*
X143372214Y-84172863D01*
X143232863Y-84312214D01*
X143232860Y-84312218D01*
X143123371Y-84476079D01*
X143123368Y-84476086D01*
X143086402Y-84565328D01*
X143059522Y-84605555D01*
X142201651Y-85463427D01*
X142140328Y-85496912D01*
X142110834Y-85498919D01*
X142110834Y-85499500D01*
X141849166Y-85499500D01*
X141849166Y-85497988D01*
X141787346Y-85484982D01*
X141758347Y-85463427D01*
X141491479Y-85196559D01*
X141491459Y-85196537D01*
X141347785Y-85052863D01*
X141347781Y-85052860D01*
X141183920Y-84943371D01*
X141183907Y-84943364D01*
X141050134Y-84887955D01*
X141042411Y-84884756D01*
X141001836Y-84867949D01*
X140894181Y-84846535D01*
X140890424Y-84845787D01*
X140890414Y-84845785D01*
X140808543Y-84829500D01*
X140808541Y-84829500D01*
X139513214Y-84829500D01*
X139488346Y-84822198D01*
X139462663Y-84818728D01*
X139452339Y-84811625D01*
X139446175Y-84809815D01*
X139432811Y-84799900D01*
X139429040Y-84796688D01*
X139354066Y-84721714D01*
X139265264Y-84657195D01*
X139261618Y-84654090D01*
X139244997Y-84628705D01*
X139226470Y-84604678D01*
X139226047Y-84599763D01*
X139223345Y-84595635D01*
X139223087Y-84565289D01*
X139220491Y-84535064D01*
X139222792Y-84530701D01*
X139222751Y-84525768D01*
X139238935Y-84500107D01*
X139253097Y-84473269D01*
X139259197Y-84467983D01*
X139260025Y-84466671D01*
X139261514Y-84465975D01*
X139269137Y-84459371D01*
X139353739Y-84397905D01*
X139515402Y-84236242D01*
X139649788Y-84051276D01*
X139753582Y-83847570D01*
X139824234Y-83630128D01*
X139838509Y-83540000D01*
X138850748Y-83540000D01*
X138872518Y-83502292D01*
X138910000Y-83362409D01*
X138910000Y-83217591D01*
X138872518Y-83077708D01*
X138850748Y-83040000D01*
X139838509Y-83040000D01*
X139824234Y-82949871D01*
X139753582Y-82732429D01*
X139649788Y-82528723D01*
X139515402Y-82343757D01*
X139353742Y-82182097D01*
X139168776Y-82047711D01*
X138965068Y-81943917D01*
X138747625Y-81873265D01*
X138747626Y-81873265D01*
X138610000Y-81851467D01*
X138610000Y-82799252D01*
X138572292Y-82777482D01*
X138432409Y-82740000D01*
X138287591Y-82740000D01*
X138147708Y-82777482D01*
X138110000Y-82799252D01*
X138110000Y-81851467D01*
X137972374Y-81873265D01*
X137754931Y-81943917D01*
X137551223Y-82047711D01*
X137366257Y-82182097D01*
X137204597Y-82343757D01*
X137070211Y-82528723D01*
X136966417Y-82732429D01*
X136895765Y-82949871D01*
X136881491Y-83040000D01*
X137869252Y-83040000D01*
X137847482Y-83077708D01*
X137810000Y-83217591D01*
X137810000Y-83362409D01*
X137847482Y-83502292D01*
X137869252Y-83540000D01*
X136881491Y-83540000D01*
X136895765Y-83630128D01*
X136966417Y-83847570D01*
X137070211Y-84051276D01*
X137204597Y-84236242D01*
X137366257Y-84397902D01*
X137366263Y-84397907D01*
X137450863Y-84459372D01*
X137493529Y-84514701D01*
X137499508Y-84584315D01*
X137466903Y-84646110D01*
X137450864Y-84660007D01*
X137365940Y-84721709D01*
X137365931Y-84721716D01*
X137204216Y-84883431D01*
X137204216Y-84883432D01*
X137204214Y-84883434D01*
X137160672Y-84943364D01*
X137069783Y-85068461D01*
X136965950Y-85272244D01*
X136895278Y-85489750D01*
X136895278Y-85489753D01*
X136868409Y-85659397D01*
X136859500Y-85715646D01*
X136859500Y-85944354D01*
X136860922Y-85953334D01*
X136895278Y-86170246D01*
X136895278Y-86170249D01*
X136965950Y-86387755D01*
X137048873Y-86550499D01*
X137069783Y-86591538D01*
X137202525Y-86774242D01*
X137226005Y-86840046D01*
X137210180Y-86908100D01*
X137160074Y-86956795D01*
X137145541Y-86963308D01*
X137117670Y-86973703D01*
X137117664Y-86973706D01*
X137002455Y-87059952D01*
X137002452Y-87059955D01*
X136916206Y-87175164D01*
X136916202Y-87175171D01*
X136865908Y-87310017D01*
X136862739Y-87339500D01*
X136859501Y-87369623D01*
X136859500Y-87369635D01*
X136859500Y-89370370D01*
X136859501Y-89370376D01*
X136865908Y-89429983D01*
X136916202Y-89564828D01*
X136916206Y-89564835D01*
X137002452Y-89680044D01*
X137002455Y-89680047D01*
X137117664Y-89766293D01*
X137117671Y-89766297D01*
X137161677Y-89782710D01*
X137252517Y-89816591D01*
X137312127Y-89823000D01*
X137905500Y-89822999D01*
X137972539Y-89842683D01*
X138018294Y-89895487D01*
X138029500Y-89946999D01*
X138029500Y-91074699D01*
X138009815Y-91141738D01*
X137957011Y-91187493D01*
X137944507Y-91192403D01*
X137911962Y-91203188D01*
X137860668Y-91220185D01*
X137860663Y-91220187D01*
X137711342Y-91312289D01*
X137587289Y-91436342D01*
X137495187Y-91585663D01*
X137495185Y-91585668D01*
X137482706Y-91623329D01*
X137442933Y-91680774D01*
X137378417Y-91707597D01*
X137309641Y-91695282D01*
X137258442Y-91647739D01*
X137247294Y-91623329D01*
X137234814Y-91585666D01*
X137142712Y-91436344D01*
X137018656Y-91312288D01*
X136869334Y-91220186D01*
X136702797Y-91165001D01*
X136702795Y-91165000D01*
X136600010Y-91154500D01*
X135599998Y-91154500D01*
X135599980Y-91154501D01*
X135497203Y-91165000D01*
X135497200Y-91165001D01*
X135330668Y-91220185D01*
X135330666Y-91220185D01*
X135330666Y-91220186D01*
X135330662Y-91220187D01*
X135330661Y-91220189D01*
X135291620Y-91244269D01*
X135224227Y-91262708D01*
X135157564Y-91241784D01*
X135112796Y-91188142D01*
X135104908Y-91162921D01*
X135085895Y-91067340D01*
X135085894Y-91067334D01*
X135068923Y-91026363D01*
X135018016Y-90903459D01*
X135018009Y-90903446D01*
X134919464Y-90755965D01*
X134919461Y-90755961D01*
X134794038Y-90630538D01*
X134794034Y-90630535D01*
X134646553Y-90531990D01*
X134646540Y-90531983D01*
X134482667Y-90464106D01*
X134482658Y-90464103D01*
X134308694Y-90429500D01*
X134308691Y-90429500D01*
X134131309Y-90429500D01*
X134131306Y-90429500D01*
X133957341Y-90464103D01*
X133957332Y-90464106D01*
X133793459Y-90531983D01*
X133793446Y-90531990D01*
X133645965Y-90630535D01*
X133645961Y-90630538D01*
X133520538Y-90755961D01*
X133520535Y-90755965D01*
X133421990Y-90903446D01*
X133421983Y-90903459D01*
X133354106Y-91067332D01*
X133354103Y-91067341D01*
X133319500Y-91241304D01*
X133319500Y-91418695D01*
X133354103Y-91592658D01*
X133354106Y-91592667D01*
X133421983Y-91756540D01*
X133421990Y-91756553D01*
X133520535Y-91904034D01*
X133520538Y-91904038D01*
X133645961Y-92029461D01*
X133645965Y-92029464D01*
X133793446Y-92128009D01*
X133793459Y-92128016D01*
X133916363Y-92178923D01*
X133957334Y-92195894D01*
X133957336Y-92195894D01*
X133957341Y-92195896D01*
X134131304Y-92230499D01*
X134131307Y-92230500D01*
X134131309Y-92230500D01*
X134219903Y-92230500D01*
X134286942Y-92250185D01*
X134307584Y-92266819D01*
X134572639Y-92531874D01*
X134572649Y-92531885D01*
X134576979Y-92536215D01*
X134576980Y-92536216D01*
X134688784Y-92648020D01*
X134775595Y-92698139D01*
X134825715Y-92727077D01*
X134934671Y-92756272D01*
X134940373Y-92758419D01*
X134963601Y-92775921D01*
X134988430Y-92791055D01*
X134994646Y-92799313D01*
X134996175Y-92800465D01*
X134996812Y-92802191D01*
X135002215Y-92809368D01*
X135057289Y-92898657D01*
X135151304Y-92992672D01*
X135184789Y-93053995D01*
X135179805Y-93123687D01*
X135151305Y-93168034D01*
X135057682Y-93261657D01*
X134965643Y-93410875D01*
X134965641Y-93410880D01*
X134910494Y-93577302D01*
X134910493Y-93577309D01*
X134900000Y-93680013D01*
X134900000Y-93742500D01*
X135976000Y-93742500D01*
X136043039Y-93762185D01*
X136088794Y-93814989D01*
X136100000Y-93866500D01*
X136100000Y-93992500D01*
X136226000Y-93992500D01*
X136293039Y-94012185D01*
X136338794Y-94064989D01*
X136350000Y-94116500D01*
X136350000Y-95004999D01*
X136599972Y-95004999D01*
X136599986Y-95004998D01*
X136702697Y-94994505D01*
X136869119Y-94939358D01*
X136869124Y-94939356D01*
X137018345Y-94847315D01*
X137142315Y-94723345D01*
X137234356Y-94574124D01*
X137234356Y-94574122D01*
X137247029Y-94535878D01*
X137286801Y-94478433D01*
X137351316Y-94451608D01*
X137420092Y-94463922D01*
X137471293Y-94511464D01*
X137482441Y-94535874D01*
X137493136Y-94568147D01*
X137495186Y-94574334D01*
X137587288Y-94723656D01*
X137711344Y-94847712D01*
X137860666Y-94939814D01*
X138027203Y-94994999D01*
X138129991Y-95005500D01*
X139130008Y-95005499D01*
X139130016Y-95005498D01*
X139130019Y-95005498D01*
X139197056Y-94998650D01*
X139232797Y-94994999D01*
X139399334Y-94939814D01*
X139548656Y-94847712D01*
X139672712Y-94723656D01*
X139764814Y-94574334D01*
X139819999Y-94407797D01*
X139830500Y-94305009D01*
X139830499Y-93679992D01*
X139824233Y-93618656D01*
X139819999Y-93577203D01*
X139819998Y-93577200D01*
X139764814Y-93410666D01*
X139672712Y-93261344D01*
X139579049Y-93167681D01*
X139545564Y-93106358D01*
X139550548Y-93036666D01*
X139579049Y-92992319D01*
X139672712Y-92898656D01*
X139764814Y-92749334D01*
X139819999Y-92582797D01*
X139830500Y-92480009D01*
X139830499Y-91854992D01*
X139823830Y-91789711D01*
X139819999Y-91752203D01*
X139819998Y-91752200D01*
X139801137Y-91695282D01*
X139764814Y-91585666D01*
X139672712Y-91436344D01*
X139548656Y-91312288D01*
X139399334Y-91220186D01*
X139315495Y-91192404D01*
X139258051Y-91152632D01*
X139231228Y-91088116D01*
X139230500Y-91074699D01*
X139230500Y-89946999D01*
X139250185Y-89879960D01*
X139302989Y-89834205D01*
X139354500Y-89822999D01*
X139407871Y-89822999D01*
X139407872Y-89822999D01*
X139467483Y-89816591D01*
X139602331Y-89766296D01*
X139717546Y-89680046D01*
X139803796Y-89564831D01*
X139854091Y-89429983D01*
X139860500Y-89370373D01*
X139860499Y-87369628D01*
X139854091Y-87310017D01*
X139835936Y-87261342D01*
X139803797Y-87175171D01*
X139803793Y-87175164D01*
X139717547Y-87059955D01*
X139717546Y-87059954D01*
X139709281Y-87053767D01*
X139667409Y-86997834D01*
X139662425Y-86928142D01*
X139695909Y-86866819D01*
X139757232Y-86833334D01*
X139783591Y-86830500D01*
X140244218Y-86830500D01*
X140273658Y-86839144D01*
X140303645Y-86845668D01*
X140308660Y-86849422D01*
X140311257Y-86850185D01*
X140331899Y-86866819D01*
X140343427Y-86878347D01*
X140376912Y-86939670D01*
X140378921Y-86969166D01*
X140379500Y-86969166D01*
X140379500Y-86974038D01*
X140379500Y-87225962D01*
X140408755Y-87410668D01*
X140418910Y-87474785D01*
X140496760Y-87714383D01*
X140550830Y-87820500D01*
X140610293Y-87937203D01*
X140611132Y-87938848D01*
X140759201Y-88142649D01*
X140759205Y-88142654D01*
X140937345Y-88320794D01*
X140937350Y-88320798D01*
X141115117Y-88449952D01*
X141141155Y-88468870D01*
X141284184Y-88541747D01*
X141365616Y-88583239D01*
X141365618Y-88583239D01*
X141365621Y-88583241D01*
X141605215Y-88661090D01*
X141854038Y-88700500D01*
X141854039Y-88700500D01*
X142105961Y-88700500D01*
X142105962Y-88700500D01*
X142354785Y-88661090D01*
X142594379Y-88583241D01*
X142818845Y-88468870D01*
X143022656Y-88320793D01*
X143200793Y-88142656D01*
X143348870Y-87938845D01*
X143463241Y-87714379D01*
X143541090Y-87474785D01*
X143580500Y-87225962D01*
X143580500Y-86974038D01*
X143580500Y-86969166D01*
X143582028Y-86969166D01*
X143594979Y-86907415D01*
X143616567Y-86878351D01*
X144508102Y-85986819D01*
X144569425Y-85953334D01*
X144595783Y-85950500D01*
X146219699Y-85950500D01*
X146286738Y-85970185D01*
X146332493Y-86022989D01*
X146337401Y-86035487D01*
X146359666Y-86102677D01*
X146365185Y-86119332D01*
X146365187Y-86119337D01*
X146367643Y-86123319D01*
X146457288Y-86268656D01*
X146581344Y-86392712D01*
X146730665Y-86484814D01*
X146897202Y-86539999D01*
X146999990Y-86550500D01*
X146999995Y-86550500D01*
X148800005Y-86550500D01*
X148800010Y-86550500D01*
X148902798Y-86539999D01*
X149069335Y-86484814D01*
X149218656Y-86392712D01*
X149342712Y-86268656D01*
X149434814Y-86119335D01*
X149489999Y-85952798D01*
X149500500Y-85850010D01*
X149500500Y-85393575D01*
X149520185Y-85326536D01*
X149572989Y-85280781D01*
X149642147Y-85270837D01*
X149705703Y-85299862D01*
X149727602Y-85324684D01*
X149818210Y-85460288D01*
X149818213Y-85460292D01*
X149929707Y-85571786D01*
X149929711Y-85571789D01*
X150060814Y-85659390D01*
X150060827Y-85659397D01*
X150196626Y-85715646D01*
X150206503Y-85719737D01*
X150361153Y-85750499D01*
X150361156Y-85750500D01*
X150361158Y-85750500D01*
X150518844Y-85750500D01*
X150518845Y-85750499D01*
X150673497Y-85719737D01*
X150819179Y-85659394D01*
X150950289Y-85571789D01*
X151061789Y-85460289D01*
X151149394Y-85329179D01*
X151209737Y-85183497D01*
X151240500Y-85028842D01*
X151240500Y-84871158D01*
X151240500Y-84871155D01*
X151240499Y-84871153D01*
X151210774Y-84721716D01*
X151209737Y-84716503D01*
X151209735Y-84716498D01*
X151149397Y-84570827D01*
X151149390Y-84570814D01*
X151061789Y-84439711D01*
X151061786Y-84439707D01*
X150950292Y-84328213D01*
X150950288Y-84328210D01*
X150819185Y-84240609D01*
X150819172Y-84240602D01*
X150673501Y-84180264D01*
X150673489Y-84180261D01*
X150518845Y-84149500D01*
X150518842Y-84149500D01*
X150361158Y-84149500D01*
X150361155Y-84149500D01*
X150206510Y-84180261D01*
X150206498Y-84180264D01*
X150060827Y-84240602D01*
X150060814Y-84240609D01*
X149929711Y-84328210D01*
X149929707Y-84328213D01*
X149818213Y-84439707D01*
X149818210Y-84439711D01*
X149727602Y-84575315D01*
X149673989Y-84620120D01*
X149604664Y-84628827D01*
X149541637Y-84598672D01*
X149504918Y-84539229D01*
X149500500Y-84506424D01*
X149500500Y-84049995D01*
X149500499Y-84049982D01*
X149496758Y-84013368D01*
X149489999Y-83947202D01*
X149434814Y-83780665D01*
X149342712Y-83631344D01*
X149218656Y-83507288D01*
X149213871Y-83502503D01*
X149180386Y-83441180D01*
X149185370Y-83371488D01*
X149201234Y-83341937D01*
X149268870Y-83248845D01*
X149383241Y-83024379D01*
X149461090Y-82784785D01*
X149466357Y-82751531D01*
X149496286Y-82688396D01*
X149555597Y-82651464D01*
X149625460Y-82652462D01*
X149683692Y-82691071D01*
X149703391Y-82723476D01*
X149730602Y-82789173D01*
X149730609Y-82789185D01*
X149818210Y-82920288D01*
X149818213Y-82920292D01*
X149929707Y-83031786D01*
X149929711Y-83031789D01*
X150060814Y-83119390D01*
X150060827Y-83119397D01*
X150180494Y-83168964D01*
X150206503Y-83179737D01*
X150361153Y-83210499D01*
X150361156Y-83210500D01*
X150361158Y-83210500D01*
X150518844Y-83210500D01*
X150518845Y-83210499D01*
X150673497Y-83179737D01*
X150819179Y-83119394D01*
X150950289Y-83031789D01*
X151061789Y-82920289D01*
X151149394Y-82789179D01*
X151209737Y-82643497D01*
X151240500Y-82488842D01*
X151240500Y-82331158D01*
X151240500Y-82331155D01*
X151240499Y-82331153D01*
X151224291Y-82249670D01*
X151209737Y-82176503D01*
X151179944Y-82104576D01*
X151149397Y-82030827D01*
X151149390Y-82030814D01*
X151061789Y-81899711D01*
X151061786Y-81899707D01*
X150950292Y-81788213D01*
X150950288Y-81788210D01*
X150819185Y-81700609D01*
X150819172Y-81700602D01*
X150673501Y-81640264D01*
X150673489Y-81640261D01*
X150518845Y-81609500D01*
X150518842Y-81609500D01*
X150361158Y-81609500D01*
X150361155Y-81609500D01*
X150206510Y-81640261D01*
X150206498Y-81640264D01*
X150060827Y-81700602D01*
X150060814Y-81700609D01*
X149929711Y-81788210D01*
X149929707Y-81788213D01*
X149818213Y-81899707D01*
X149818210Y-81899711D01*
X149730609Y-82030814D01*
X149730602Y-82030827D01*
X149703391Y-82096523D01*
X149659550Y-82150927D01*
X149593256Y-82172992D01*
X149525557Y-82155713D01*
X149477946Y-82104576D01*
X149466357Y-82068469D01*
X149463069Y-82047711D01*
X149461090Y-82035215D01*
X149383241Y-81795621D01*
X149383239Y-81795618D01*
X149383239Y-81795616D01*
X149329679Y-81690500D01*
X149268870Y-81571155D01*
X149244210Y-81537213D01*
X149120798Y-81367350D01*
X149120794Y-81367345D01*
X148942654Y-81189205D01*
X148942649Y-81189201D01*
X148738848Y-81041132D01*
X148738847Y-81041131D01*
X148738845Y-81041130D01*
X148647395Y-80994534D01*
X148514383Y-80926760D01*
X148274785Y-80848910D01*
X148259474Y-80846485D01*
X148025962Y-80809500D01*
X147774038Y-80809500D01*
X147769166Y-80809500D01*
X147769166Y-80807988D01*
X147707346Y-80794982D01*
X147678347Y-80773427D01*
X145577784Y-78672863D01*
X145577780Y-78672860D01*
X145413920Y-78563372D01*
X145413910Y-78563367D01*
X145231836Y-78487949D01*
X145231828Y-78487947D01*
X145038543Y-78449500D01*
X145038540Y-78449500D01*
X144841459Y-78449500D01*
X144841457Y-78449500D01*
X144789602Y-78459815D01*
X144702619Y-78477117D01*
X144678429Y-78479500D01*
X143660301Y-78479500D01*
X143593262Y-78459815D01*
X143547507Y-78407011D01*
X143542598Y-78394512D01*
X143514814Y-78310665D01*
X143422712Y-78161344D01*
X143298656Y-78037288D01*
X143149335Y-77945186D01*
X142982798Y-77890001D01*
X142982796Y-77890000D01*
X142880017Y-77879500D01*
X142880010Y-77879500D01*
X141079990Y-77879500D01*
X141079982Y-77879500D01*
X140977203Y-77890000D01*
X140977202Y-77890001D01*
X140894669Y-77917349D01*
X140810667Y-77945185D01*
X140810662Y-77945187D01*
X140661342Y-78037289D01*
X140537289Y-78161342D01*
X140445187Y-78310662D01*
X140445186Y-78310665D01*
X140417403Y-78394505D01*
X140377632Y-78451949D01*
X140313117Y-78478772D01*
X140299699Y-78479500D01*
X136835782Y-78479500D01*
X136768743Y-78459815D01*
X136748101Y-78443181D01*
X131286717Y-72981797D01*
X131253232Y-72920474D01*
X131251925Y-72913513D01*
X131228477Y-72765466D01*
X131228477Y-72765465D01*
X131167518Y-72577855D01*
X131165220Y-72570781D01*
X131165218Y-72570778D01*
X131165218Y-72570776D01*
X131122155Y-72486262D01*
X131072287Y-72388390D01*
X131056966Y-72367302D01*
X130951971Y-72222786D01*
X130807213Y-72078028D01*
X130641613Y-71957715D01*
X130641612Y-71957714D01*
X130641610Y-71957713D01*
X130582675Y-71927684D01*
X130459223Y-71864781D01*
X130264534Y-71801522D01*
X130089995Y-71773878D01*
X130062352Y-71769500D01*
X129857648Y-71769500D01*
X129833329Y-71773351D01*
X129655465Y-71801522D01*
X129460776Y-71864781D01*
X129278386Y-71957715D01*
X129112786Y-72078028D01*
X128968028Y-72222786D01*
X128847715Y-72388386D01*
X128754781Y-72570778D01*
X128691522Y-72765468D01*
X128668073Y-72913514D01*
X128638143Y-72976649D01*
X128633281Y-72981796D01*
X123791076Y-77824002D01*
X123729753Y-77857487D01*
X123660061Y-77852503D01*
X123604128Y-77810631D01*
X123585464Y-77774639D01*
X123582197Y-77764584D01*
X123545220Y-77650781D01*
X123452287Y-77468390D01*
X123444556Y-77457749D01*
X123331971Y-77302786D01*
X123187213Y-77158028D01*
X123021614Y-77037715D01*
X122972093Y-77012483D01*
X122928917Y-76990483D01*
X122878123Y-76942511D01*
X122861328Y-76874690D01*
X122883865Y-76808555D01*
X122928917Y-76769516D01*
X123021610Y-76722287D01*
X123147333Y-76630945D01*
X123187213Y-76601971D01*
X123187215Y-76601968D01*
X123187219Y-76601966D01*
X123331966Y-76457219D01*
X123331968Y-76457215D01*
X123331971Y-76457213D01*
X123432140Y-76319340D01*
X123452287Y-76291610D01*
X123545220Y-76109219D01*
X123608477Y-75914534D01*
X123640500Y-75712352D01*
X123640500Y-75507648D01*
X123608477Y-75305466D01*
X123545220Y-75110781D01*
X123545218Y-75110778D01*
X123545218Y-75110776D01*
X123489237Y-75000909D01*
X123452287Y-74928390D01*
X123444556Y-74917749D01*
X123331971Y-74762786D01*
X123187217Y-74618032D01*
X123187212Y-74618028D01*
X123093051Y-74549616D01*
X123050385Y-74494286D01*
X123044406Y-74424673D01*
X123077012Y-74362878D01*
X123126933Y-74331592D01*
X123209117Y-74304359D01*
X123209124Y-74304356D01*
X123358345Y-74212315D01*
X123482315Y-74088345D01*
X123574356Y-73939124D01*
X123574358Y-73939119D01*
X123629505Y-73772697D01*
X123629506Y-73772690D01*
X123639999Y-73669986D01*
X123640000Y-73669973D01*
X123640000Y-73320000D01*
X122655686Y-73320000D01*
X122660080Y-73315606D01*
X122712741Y-73224394D01*
X122740000Y-73122661D01*
X122740000Y-73017339D01*
X122712741Y-72915606D01*
X122660080Y-72824394D01*
X122655686Y-72820000D01*
X123639999Y-72820000D01*
X123639999Y-72470028D01*
X123639998Y-72470013D01*
X123629505Y-72367302D01*
X123574358Y-72200880D01*
X123574356Y-72200875D01*
X123482315Y-72051654D01*
X123358345Y-71927684D01*
X123209124Y-71835643D01*
X123209119Y-71835641D01*
X123042697Y-71780494D01*
X123042690Y-71780493D01*
X122939986Y-71770000D01*
X122590000Y-71770000D01*
X122590000Y-72754314D01*
X122585606Y-72749920D01*
X122494394Y-72697259D01*
X122392661Y-72670000D01*
X122287339Y-72670000D01*
X122185606Y-72697259D01*
X122094394Y-72749920D01*
X122090000Y-72754314D01*
X122090000Y-71770000D01*
X121740028Y-71770000D01*
X121740012Y-71770001D01*
X121637302Y-71780494D01*
X121470880Y-71835641D01*
X121470875Y-71835643D01*
X121321654Y-71927684D01*
X121197684Y-72051654D01*
X121105643Y-72200875D01*
X121105641Y-72200880D01*
X121050494Y-72367302D01*
X121050493Y-72367309D01*
X121040000Y-72470013D01*
X121040000Y-72820000D01*
X122024314Y-72820000D01*
X122019920Y-72824394D01*
X121967259Y-72915606D01*
X121940000Y-73017339D01*
X121940000Y-73122661D01*
X121967259Y-73224394D01*
X122019920Y-73315606D01*
X122024314Y-73320000D01*
X121040001Y-73320000D01*
X121040001Y-73669986D01*
X121050494Y-73772697D01*
X121105641Y-73939119D01*
X121105643Y-73939124D01*
X121197684Y-74088345D01*
X121321654Y-74212315D01*
X121470875Y-74304356D01*
X121470882Y-74304359D01*
X121553067Y-74331592D01*
X121610512Y-74371364D01*
X121637336Y-74435880D01*
X121625021Y-74504656D01*
X121586949Y-74549616D01*
X121492787Y-74618028D01*
X121492782Y-74618032D01*
X121348028Y-74762786D01*
X121227715Y-74928386D01*
X121134781Y-75110776D01*
X121071522Y-75305465D01*
X121039500Y-75507648D01*
X121039500Y-75712351D01*
X121071522Y-75914534D01*
X121134781Y-76109223D01*
X121227715Y-76291613D01*
X121348028Y-76457213D01*
X121492786Y-76601971D01*
X121647749Y-76714556D01*
X121658390Y-76722287D01*
X121749840Y-76768883D01*
X121751080Y-76769515D01*
X121801876Y-76817490D01*
X121818671Y-76885311D01*
X121796134Y-76951446D01*
X121751080Y-76990485D01*
X121658386Y-77037715D01*
X121492786Y-77158028D01*
X121348028Y-77302786D01*
X121227715Y-77468386D01*
X121134781Y-77650776D01*
X121071522Y-77845465D01*
X121039500Y-78047648D01*
X121039500Y-78252351D01*
X121071522Y-78454534D01*
X121134781Y-78649223D01*
X121227715Y-78831613D01*
X121348028Y-78997213D01*
X121492786Y-79141971D01*
X121647749Y-79254556D01*
X121658390Y-79262287D01*
X121749840Y-79308883D01*
X121751080Y-79309515D01*
X121801876Y-79357490D01*
X121818671Y-79425311D01*
X121796134Y-79491446D01*
X121751080Y-79530485D01*
X121658386Y-79577715D01*
X121537123Y-79665818D01*
X121471317Y-79689298D01*
X121464238Y-79689500D01*
X120205782Y-79689500D01*
X120138743Y-79669815D01*
X120118101Y-79653181D01*
X116031479Y-75566559D01*
X116031459Y-75566537D01*
X115887785Y-75422863D01*
X115887781Y-75422860D01*
X115723920Y-75313371D01*
X115723907Y-75313364D01*
X115575603Y-75251935D01*
X115575597Y-75251933D01*
X115567308Y-75248500D01*
X115541836Y-75237949D01*
X115445188Y-75218724D01*
X115442045Y-75218099D01*
X115442038Y-75218097D01*
X115348544Y-75199500D01*
X115348541Y-75199500D01*
X113971063Y-75199500D01*
X113904024Y-75179815D01*
X113871795Y-75149809D01*
X113862548Y-75137457D01*
X113862546Y-75137454D01*
X113826909Y-75110776D01*
X113747335Y-75051206D01*
X113747328Y-75051202D01*
X113612482Y-75000908D01*
X113612483Y-75000908D01*
X113552883Y-74994501D01*
X113552881Y-74994500D01*
X113552873Y-74994500D01*
X113552864Y-74994500D01*
X112047129Y-74994500D01*
X112047123Y-74994501D01*
X111987516Y-75000908D01*
X111852671Y-75051202D01*
X111852664Y-75051206D01*
X111737455Y-75137452D01*
X111737452Y-75137455D01*
X111651206Y-75252664D01*
X111651202Y-75252671D01*
X111600908Y-75387517D01*
X111594501Y-75447116D01*
X111594500Y-75447135D01*
X103360500Y-75447135D01*
X103360500Y-72577849D01*
X115448000Y-72577849D01*
X115448000Y-72822150D01*
X115486214Y-73063428D01*
X115561706Y-73295765D01*
X115574055Y-73320000D01*
X115672611Y-73513425D01*
X115816201Y-73711060D01*
X115988940Y-73883799D01*
X116186575Y-74027389D01*
X116289410Y-74079786D01*
X116404234Y-74138293D01*
X116404236Y-74138293D01*
X116404239Y-74138295D01*
X116528774Y-74178759D01*
X116636571Y-74213785D01*
X116877850Y-74252000D01*
X116877855Y-74252000D01*
X117122150Y-74252000D01*
X117363428Y-74213785D01*
X117367952Y-74212315D01*
X117595761Y-74138295D01*
X117813425Y-74027389D01*
X118011060Y-73883799D01*
X118183799Y-73711060D01*
X118327389Y-73513425D01*
X118438295Y-73295761D01*
X118513785Y-73063428D01*
X118526714Y-72981796D01*
X118552000Y-72822150D01*
X118552000Y-72577849D01*
X118537494Y-72486262D01*
X118513785Y-72336571D01*
X118438293Y-72104234D01*
X118327388Y-71886574D01*
X118183799Y-71688940D01*
X118011060Y-71516201D01*
X117813425Y-71372611D01*
X117595765Y-71261706D01*
X117363428Y-71186214D01*
X117122150Y-71148000D01*
X117122145Y-71148000D01*
X116877855Y-71148000D01*
X116877850Y-71148000D01*
X116636571Y-71186214D01*
X116404234Y-71261706D01*
X116186574Y-71372611D01*
X115988937Y-71516203D01*
X115816203Y-71688937D01*
X115672611Y-71886574D01*
X115561706Y-72104234D01*
X115486214Y-72336571D01*
X115448000Y-72577849D01*
X103360500Y-72577849D01*
X103360500Y-65528711D01*
X105749500Y-65528711D01*
X105749500Y-65771288D01*
X105781161Y-66011785D01*
X105843947Y-66246104D01*
X105936773Y-66470205D01*
X105936776Y-66470212D01*
X106058064Y-66680289D01*
X106058066Y-66680292D01*
X106058067Y-66680293D01*
X106205733Y-66872736D01*
X106205739Y-66872743D01*
X106377256Y-67044260D01*
X106377262Y-67044265D01*
X106569711Y-67191936D01*
X106779788Y-67313224D01*
X107003900Y-67406054D01*
X107238211Y-67468838D01*
X107418586Y-67492584D01*
X107478711Y-67500500D01*
X107478712Y-67500500D01*
X107721289Y-67500500D01*
X107769388Y-67494167D01*
X107961789Y-67468838D01*
X108196100Y-67406054D01*
X108420212Y-67313224D01*
X108630289Y-67191936D01*
X108822738Y-67044265D01*
X108994265Y-66872738D01*
X109141936Y-66680289D01*
X109263224Y-66470212D01*
X109356054Y-66246100D01*
X109418838Y-66011789D01*
X109450500Y-65771288D01*
X109450500Y-65528712D01*
X109450500Y-65528711D01*
X147319500Y-65528711D01*
X147319500Y-65771288D01*
X147351161Y-66011785D01*
X147413947Y-66246104D01*
X147506773Y-66470205D01*
X147506776Y-66470212D01*
X147628064Y-66680289D01*
X147628066Y-66680292D01*
X147628067Y-66680293D01*
X147775733Y-66872736D01*
X147775739Y-66872743D01*
X147947256Y-67044260D01*
X147947262Y-67044265D01*
X148139711Y-67191936D01*
X148349788Y-67313224D01*
X148573900Y-67406054D01*
X148808211Y-67468838D01*
X148988586Y-67492584D01*
X149048711Y-67500500D01*
X149048712Y-67500500D01*
X149291289Y-67500500D01*
X149339388Y-67494167D01*
X149531789Y-67468838D01*
X149766100Y-67406054D01*
X149990212Y-67313224D01*
X150200289Y-67191936D01*
X150392738Y-67044265D01*
X150564265Y-66872738D01*
X150711936Y-66680289D01*
X150833224Y-66470212D01*
X150926054Y-66246100D01*
X150988838Y-66011789D01*
X151020500Y-65771288D01*
X151020500Y-65528712D01*
X150988838Y-65288211D01*
X150926054Y-65053900D01*
X150833224Y-64829788D01*
X150711936Y-64619711D01*
X150564265Y-64427262D01*
X150564260Y-64427256D01*
X150392743Y-64255739D01*
X150392736Y-64255733D01*
X150200293Y-64108067D01*
X150200292Y-64108066D01*
X150200289Y-64108064D01*
X149990212Y-63986776D01*
X149990205Y-63986773D01*
X149766104Y-63893947D01*
X149531785Y-63831161D01*
X149291289Y-63799500D01*
X149291288Y-63799500D01*
X149048712Y-63799500D01*
X149048711Y-63799500D01*
X148808214Y-63831161D01*
X148573895Y-63893947D01*
X148349794Y-63986773D01*
X148349785Y-63986777D01*
X148139706Y-64108067D01*
X147947263Y-64255733D01*
X147947256Y-64255739D01*
X147775739Y-64427256D01*
X147775733Y-64427263D01*
X147628067Y-64619706D01*
X147506777Y-64829785D01*
X147506773Y-64829794D01*
X147413947Y-65053895D01*
X147351161Y-65288214D01*
X147319500Y-65528711D01*
X109450500Y-65528711D01*
X109418838Y-65288211D01*
X109356054Y-65053900D01*
X109263224Y-64829788D01*
X109141936Y-64619711D01*
X108994265Y-64427262D01*
X108994260Y-64427256D01*
X108822743Y-64255739D01*
X108822736Y-64255733D01*
X108630293Y-64108067D01*
X108630292Y-64108066D01*
X108630289Y-64108064D01*
X108420212Y-63986776D01*
X108420205Y-63986773D01*
X108196104Y-63893947D01*
X107961785Y-63831161D01*
X107721289Y-63799500D01*
X107721288Y-63799500D01*
X107478712Y-63799500D01*
X107478711Y-63799500D01*
X107238214Y-63831161D01*
X107003895Y-63893947D01*
X106779794Y-63986773D01*
X106779785Y-63986777D01*
X106569706Y-64108067D01*
X106377263Y-64255733D01*
X106377256Y-64255739D01*
X106205739Y-64427256D01*
X106205733Y-64427263D01*
X106058067Y-64619706D01*
X105936777Y-64829785D01*
X105936773Y-64829794D01*
X105843947Y-65053895D01*
X105781161Y-65288214D01*
X105749500Y-65528711D01*
X103360500Y-65528711D01*
X103360500Y-61724500D01*
X103380185Y-61657461D01*
X103432989Y-61611706D01*
X103484500Y-61600500D01*
X152965500Y-61600500D01*
X153032539Y-61620185D01*
G37*
%TD.AperFunction*%
%TD*%
M02*
